<?xml version="1.0" encoding="utf-8"?>
<!-- Generator: Adobe Illustrator 16.0.0, SVG Export Plug-In . SVG Version: 6.00 Build 0)  -->
<!DOCTYPE svg PUBLIC "-//W3C//DTD SVG 1.1//EN" "http://www.w3.org/Graphics/SVG/1.1/DTD/svg11.dtd">
<svg version="1.1" xmlns="http://www.w3.org/2000/svg" xmlns:xlink="http://www.w3.org/1999/xlink" x="0px" y="0px" width="70.25px"
	 height="83.25px" viewBox="0 0 70.25 83.25" style="enable-background:new 0 0 70.25 83.25;" xml:space="preserve">
<style type="text/css">
<![CDATA[
	.st0{fill:#F3FAF9;}
	.st1{fill:none;stroke:#45B5A9;stroke-width:2.5;stroke-linecap:round;stroke-linejoin:round;stroke-miterlimit:10;}
	.st2{fill:none;stroke:#45B5A9;stroke-width:2.5;stroke-linecap:round;stroke-linejoin:round;}
]]>
</style>
<g id="レイヤー_1">
</g>
<g id="編集モード">
	<path class="st1" d="M52.173,72.363H12.656c-1.301,0-2.355-1.055-2.355-2.355V15.526c0-1.301,1.054-2.354,2.355-2.354h39.517
		c1.302,0,2.356,1.054,2.356,2.354v54.482C54.529,71.309,53.475,72.363,52.173,72.363z"/>
	<path class="st1" d="M47.775,67.328H17.054c-0.903,0-1.636-0.732-1.636-1.635V20.34c0-0.904,0.733-1.638,1.636-1.638h30.721
		c0.904,0,1.637,0.733,1.637,1.638v45.353C49.412,66.596,48.68,67.328,47.775,67.328z"/>
	<path class="st0" d="M42.229,10.011h-3.509c0.002-0.084,0.013-0.165,0.013-0.25c0-3.489-2.829-6.317-6.319-6.317
		c-3.489,0-6.318,2.828-6.318,6.317c0,0.085,0.01,0.166,0.013,0.25H22.6c-0.916,0-1.658,0.742-1.658,1.658v8.988
		c0,0.916,0.742,1.658,1.658,1.658h19.629c0.916,0,1.657-0.742,1.657-1.658v-8.988C43.887,10.753,43.146,10.011,42.229,10.011"/>
	<path class="st1" d="M42.229,10.011h-3.509c0.002-0.084,0.013-0.165,0.013-0.25c0-3.489-2.829-6.317-6.319-6.317
		c-3.489,0-6.318,2.828-6.318,6.317c0,0.085,0.01,0.166,0.013,0.25H22.6c-0.916,0-1.658,0.742-1.658,1.658v8.988
		c0,0.916,0.742,1.658,1.658,1.658h19.629c0.916,0,1.657-0.742,1.657-1.658v-8.988C43.887,10.753,43.146,10.011,42.229,10.011z"/>
	<line class="st0" x1="21.718" y1="16.477" x2="43.111" y2="16.477"/>
	<line class="st1" x1="21.718" y1="16.477" x2="43.111" y2="16.477"/>
	<line class="st2" x1="30.258" y1="31.338" x2="40.475" y2="31.338"/>
	<line class="st2" x1="30.258" y1="41.163" x2="44.719" y2="41.163"/>
	<line class="st2" x1="30.258" y1="50.667" x2="44.719" y2="50.667"/>
	<line class="st2" x1="44.719" y1="60.142" x2="30.259" y2="60.142"/>
	<line class="st2" x1="44.453" y1="31.338" x2="44.453" y2="31.338"/>
	<path class="st0" d="M58.75,79.609l5.409-2.779c0.331-0.17,0.462-0.576,0.292-0.908L47.764,43.446
		c-0.17-0.332-0.577-0.463-0.909-0.292l-5.408,2.779c-0.332,0.17-0.463,0.577-0.292,0.909l16.688,32.476
		C58.012,79.65,58.418,79.779,58.75,79.609"/>
	<path class="st1" d="M58.75,79.609l5.409-2.779c0.331-0.17,0.462-0.576,0.292-0.908L47.764,43.446
		c-0.17-0.332-0.577-0.463-0.909-0.292l-5.408,2.779c-0.332,0.17-0.463,0.577-0.292,0.909l16.688,32.476
		C58.012,79.65,58.418,79.779,58.75,79.609z"/>
	<path class="st0" d="M40.351,37.148l0.591,9.281c0.145,0.282,0.531,0.372,0.863,0.2l5.408-2.778
		c0.332-0.17,0.483-0.537,0.339-0.819L40.351,37.148z"/>
	<path class="st1" d="M40.351,37.148l0.591,9.281c0.145,0.282,0.531,0.372,0.863,0.2l5.408-2.778
		c0.332-0.17,0.483-0.537,0.339-0.819L40.351,37.148z"/>
	<polyline class="st2" points="25.946,27.502 22.25,32.034 20.946,30.614 	"/>
	<polyline class="st2" points="25.851,37.407 22.345,41.75 20.946,40.424 	"/>
	<polyline class="st2" points="25.946,47.122 22.25,51.654 20.946,50.234 	"/>
	<polyline class="st2" points="25.851,57.027 22.345,61.37 20.946,60.044 	"/>
</g>
</svg>
