<?xml version="1.0" encoding="utf-8"?>
<!-- Generator: Adobe Illustrator 16.0.0, SVG Export Plug-In . SVG Version: 6.00 Build 0)  -->
<!DOCTYPE svg PUBLIC "-//W3C//DTD SVG 1.1//EN" "http://www.w3.org/Graphics/SVG/1.1/DTD/svg11.dtd">
<svg version="1.1" xmlns="http://www.w3.org/2000/svg" xmlns:xlink="http://www.w3.org/1999/xlink" x="0px" y="0px" width="70.25px"
	 height="67px" viewBox="0 0 70.25 67" style="enable-background:new 0 0 70.25 67;" xml:space="preserve">
<style type="text/css">
<![CDATA[
	.st0{fill:none;stroke:#45B5A9;stroke-width:2.5;stroke-linecap:round;stroke-linejoin:round;stroke-miterlimit:10;}
	.st1{fill:none;stroke:#45B5A9;stroke-width:2.5;stroke-linecap:round;stroke-linejoin:round;}
]]>
</style>
<g id="レイヤー_1">
</g>
<g id="編集モード">
	<path class="st1" d="M22.3,43.4V26.966C22.3,25.88,23.181,25,24.267,25h21.717c1.086,0,1.966,0.88,1.966,1.966V43.4"/>
	<path class="st1" d="M44.534,44.894h15.924c1.021,0,1.851,0.829,1.851,1.853v7.213c0,1.022-0.829,1.852-1.851,1.852H9.792
		c-1.022,0-1.851-0.829-1.851-1.852v-7.213c0-1.023,0.829-1.853,1.851-1.853H34.01"/>
	<line class="st0" x1="27.598" y1="8.83" x2="27.598" y2="24.443"/>
	<line class="st0" x1="35.125" y1="8.83" x2="35.125" y2="24.443"/>
	<line class="st0" x1="42.653" y1="8.83" x2="42.653" y2="24.443"/>
	<line class="st1" x1="39.253" y1="44.934" x2="39.253" y2="44.934"/>
</g>
</svg>
