<?xml version="1.0" encoding="utf-8"?>
<!-- Generator: Adobe Illustrator 16.0.0, SVG Export Plug-In . SVG Version: 6.00 Build 0)  -->
<!DOCTYPE svg PUBLIC "-//W3C//DTD SVG 1.1//EN" "http://www.w3.org/Graphics/SVG/1.1/DTD/svg11.dtd">
<svg version="1.1" xmlns="http://www.w3.org/2000/svg" xmlns:xlink="http://www.w3.org/1999/xlink" x="0px" y="0px" width="70.25px"
	 height="71.25px" viewBox="0 0 70.25 71.25" style="enable-background:new 0 0 70.25 71.25;" xml:space="preserve">
<style type="text/css">
<![CDATA[
	.st0{fill:none;stroke:#45B5A9;stroke-width:2.5;stroke-linecap:round;stroke-linejoin:round;stroke-miterlimit:10;}
]]>
</style>
<g id="レイヤー_1">
</g>
<g id="編集モード">
	<path class="st0" d="M61.95,47.537c0,2.2-1.783,3.983-3.982,3.983H34.009c-2.2,0-3.982-1.783-3.982-3.983V8.503
		c0-2.198,1.783-3.981,3.982-3.981h23.959c2.199,0,3.982,1.783,3.982,3.981v29.484"/>
	<line class="st0" x1="41.776" y1="16.209" x2="41.776" y2="21.209"/>
	<line class="st0" x1="50.2" y1="16.209" x2="50.2" y2="21.209"/>
	<line class="st0" x1="41.776" y1="34.831" x2="41.776" y2="39.831"/>
	<line class="st0" x1="50.2" y1="34.831" x2="50.2" y2="39.831"/>
	<path class="st0" d="M16.749,37.52h-2.265c-3.415,0-6.183-2.768-6.183-6.183v-6.353c0-1.022,0.828-1.851,1.85-1.851h10.931
		c1.022,0,1.85,0.828,1.85,1.851v6.353C22.932,34.752,20.164,37.52,16.749,37.52z"/>
	<line class="st0" x1="11.404" y1="15.246" x2="11.404" y2="21.489"/>
	<line class="st0" x1="19.828" y1="15.246" x2="19.828" y2="21.489"/>
	<path class="st0" d="M15.616,39.317v8.979c0,7.094,4.683,10.641,10.669,10.641h17.514c6.401,0,9.948,4.212,9.948,9.533"/>
	<line class="st0" x1="61.95" y1="42.823" x2="61.95" y2="42.865"/>
	<rect x="37.121" y="11.892" class="st0" width="17.846" height="13.635"/>
	<rect x="37.121" y="30.515" class="st0" width="17.846" height="13.635"/>
</g>
</svg>
