<?xml version="1.0" encoding="utf-8"?>
<!-- Generator: Adobe Illustrator 16.0.0, SVG Export Plug-In . SVG Version: 6.00 Build 0)  -->
<!DOCTYPE svg PUBLIC "-//W3C//DTD SVG 1.1//EN" "http://www.w3.org/Graphics/SVG/1.1/DTD/svg11.dtd">
<svg version="1.1" xmlns="http://www.w3.org/2000/svg" xmlns:xlink="http://www.w3.org/1999/xlink" x="0px" y="0px" width="70.25px"
	 height="67px" viewBox="0 0 70.25 67" style="enable-background:new 0 0 70.25 67;" xml:space="preserve">
<style type="text/css">
<![CDATA[
	.st0{fill:none;stroke:#45B5A9;stroke-width:2.5;stroke-miterlimit:10;}
	.st1{fill:none;stroke:#F3FAF9;stroke-width:2.5;stroke-linecap:round;stroke-linejoin:round;}
	.st2{fill:#F3FAF9;}
	.st3{fill:none;stroke:#F3FAF9;stroke-width:7;}
	.st4{fill:none;stroke:#45B5A9;stroke-width:5;stroke-linecap:round;stroke-linejoin:round;stroke-miterlimit:10;}
	.st5{fill:none;stroke:#45B5A9;stroke-width:2.5;stroke-linecap:round;stroke-linejoin:round;stroke-miterlimit:10;}
	.st6{fill:none;stroke:#45B5A9;stroke-width:2.5;stroke-linecap:round;stroke-linejoin:round;}
]]>
</style>
<g id="レイヤー_1">
</g>
<g id="編集モード">
	<line class="st5" x1="12.492" y1="50.997" x2="12.492" y2="7.705"/>
	<line class="st5" x1="56.74" y1="7.704" x2="56.74" y2="50.997"/>
	<line class="st5" x1="18.811" y1="50.997" x2="18.811" y2="7.705"/>
	<line class="st5" x1="25.17" y1="7.704" x2="25.17" y2="50.997"/>
	<line class="st5" x1="31.53" y1="7.704" x2="31.53" y2="50.997"/>
	<line class="st5" x1="37.891" y1="7.704" x2="37.891" y2="50.997"/>
	<line class="st5" x1="44.25" y1="7.704" x2="44.25" y2="50.997"/>
	<line class="st5" x1="50.611" y1="7.704" x2="50.611" y2="50.997"/>
	<line class="st5" x1="56.008" y1="42.067" x2="13.822" y2="42.067"/>
	<path class="st5" d="M13.822,36.416c42.206,0,42.493-0.003,42.186,0"/>
	<path class="st5" d="M13.822,30.766c42.227,0,42.4-0.005,42.186,0"/>
	<path class="st5" d="M13.822,25.114c42.245,0,42.307-0.008,42.186,0"/>
	<path class="st5" d="M13.822,19.464c42.264,0,42.215-0.01,42.186,0"/>
	<path class="st5" d="M13.822,13.813c42.284,0,42.122-0.013,42.186,0"/>
	<circle class="st3" cx="47.741" cy="42.288" r="10.31"/>
	<path class="st3" d="M53.318,42.288c0-3.079-2.498-5.575-5.576-5.575"/>
	<line class="st3" x1="61.209" y1="56.754" x2="55.557" y2="51.102"/>
	<circle class="st3" cx="47.741" cy="42.288" r="10.31"/>
	<path class="st3" d="M53.318,42.288c0-3.079-2.498-5.575-5.576-5.575"/>
	<line class="st3" x1="61.209" y1="56.754" x2="55.557" y2="51.102"/>
	<circle class="st3" cx="47.741" cy="42.288" r="10.31"/>
	<path class="st3" d="M53.318,42.288c0-3.079-2.498-5.575-5.576-5.575"/>
	<line class="st3" x1="61.209" y1="56.754" x2="55.557" y2="51.102"/>
	<line class="st3" x1="52.119" y1="46.39" x2="52.119" y2="46.39"/>
	<circle class="st1" cx="47.741" cy="42.288" r="10.31"/>
	<path class="st1" d="M53.318,42.288c0-3.079-2.498-5.575-5.576-5.575"/>
	<line class="st1" x1="61.209" y1="56.754" x2="55.557" y2="51.102"/>
	<path class="st2" d="M58.051,42.288c0-5.692-4.615-10.309-10.31-10.309c-5.692,0-10.31,4.616-10.31,10.309
		c0,5.693,4.617,10.31,10.31,10.31C53.436,52.598,58.051,47.981,58.051,42.288"/>
	<circle class="st0" cx="47.741" cy="42.288" r="10.31"/>
	<path class="st2" d="M53.318,42.288c0-3.079-2.498-5.575-5.576-5.575"/>
	<path class="st5" d="M53.318,42.288c0-3.079-2.498-5.575-5.576-5.575"/>
	<line class="st2" x1="61.209" y1="56.754" x2="55.557" y2="51.102"/>
	<line class="st4" x1="61.209" y1="56.754" x2="55.557" y2="51.102"/>
	<line class="st6" x1="52.119" y1="46.39" x2="52.119" y2="46.39"/>
</g>
</svg>
