<?xml version="1.0" encoding="utf-8"?>
<!-- Generator: Adobe Illustrator 16.0.0, SVG Export Plug-In . SVG Version: 6.00 Build 0)  -->
<!DOCTYPE svg PUBLIC "-//W3C//DTD SVG 1.1//EN" "http://www.w3.org/Graphics/SVG/1.1/DTD/svg11.dtd">
<svg version="1.1" xmlns="http://www.w3.org/2000/svg" xmlns:xlink="http://www.w3.org/1999/xlink" x="0px" y="0px" width="70.25px"
	 height="74.5px" viewBox="0 0 70.25 74.5" style="enable-background:new 0 0 70.25 74.5;" xml:space="preserve">
<style type="text/css">
<![CDATA[
	.st0{fill:none;stroke:#45B5A9;stroke-width:0.5;stroke-linecap:round;stroke-linejoin:round;stroke-miterlimit:10;}
	.st1{fill:none;stroke:#45B5A9;stroke-width:2.5;stroke-linecap:round;stroke-linejoin:round;stroke-miterlimit:10;}
	.st2{fill:#45B5A9;}
]]>
</style>
<g id="レイヤー_1">
</g>
<g id="編集モード">
	<path class="st2" d="M65.951,43.721c-1.297-0.779-3.047-0.35-4.682,1.148c-0.35,0.32-0.69,0.641-1.027,0.957
		c-1.581,1.486-3.074,2.889-4.602,3.441c-0.285,0.104-0.561,0.16-0.869,0.178c-0.519,0.031-0.914,0.479-0.883,0.998
		c0.031,0.518,0.485,0.92,0.996,0.883c0.487-0.029,0.943-0.123,1.396-0.287c1.894-0.686,3.524-2.217,5.251-3.84
		c0.332-0.313,0.668-0.627,1.011-0.943c1.16-1.063,2.021-1.172,2.438-0.92c0.32,0.191,0.465,0.619,0.371,1.076
		c-0.59,1-5.51,6.633-6.99,7.586c-1.417,0.912-11.768,4.617-16.068,5.328c-2.811,0.467-9.755-0.436-13.736-1.154
		c-1.278-0.23-2.729-0.301-4.31-0.211c-0.062,0.004-0.12,0.014-0.177,0.029l-4.799-7.672c1.621-0.963,3.904-2.295,5.115-2.576
		c2.141-0.498,3.975-0.783,5.953-0.561c0.996,0.113,2.098,0.279,3.164,0.438c1.333,0.199,2.594,0.385,3.598,0.469
		c1.095,0.09,4.222-0.037,6.979-0.15c1.72-0.07,3.496-0.143,3.886-0.115c1.949,0.127,3.162,0.764,3.605,1.893
		c0.063,0.16,0.168,0.291,0.294,0.391c-0.172,0.037-0.335,0.123-0.468,0.258c-0.188,0.191-0.729,0.361-1.604,0.504
		c-0.716,0.117-2.259,0.324-3.506,0.355c-0.253,0.006-0.644,0.012-1.106,0.02c-2.781,0.039-4.291,0.082-4.826,0.205
		c-1.156,0.266-2.864,0.969-5.075,2.088c-0.058,0.029-0.103,0.051-0.128,0.064c-0.281,0.121-0.497,0.379-0.553,0.703
		c-0.09,0.512,0.252,1,0.765,1.088c0.062,0.012,0.116,0.018,0.169,0.018c0.219,0,0.385-0.084,0.598-0.193
		c2.586-1.309,3.953-1.773,4.646-1.932c0.453-0.102,3.24-0.143,4.431-0.158c0.472-0.008,0.87-0.014,1.128-0.02
		c1.348-0.035,2.999-0.254,3.762-0.379c1.002-0.164,2.016-0.402,2.645-1.045c0.363-0.371,0.359-0.967-0.014-1.332
		c-0.023-0.023-0.053-0.041-0.078-0.063c0.048-0.01,0.096-0.021,0.143-0.041c0.484-0.189,0.723-0.736,0.532-1.219
		c-0.504-1.285-1.822-2.861-5.235-3.084c-0.464-0.033-1.787,0.02-4.084,0.113c-2.57,0.105-5.771,0.234-6.748,0.154
		c-0.945-0.078-2.175-0.26-3.477-0.455c-1.081-0.16-2.2-0.328-3.229-0.445c-2.25-0.256-4.264,0.055-6.594,0.598
		c-1.501,0.348-3.791,1.688-5.686,2.813l-0.227-0.361c-0.271-0.434-0.695-0.73-1.193-0.838c-0.5-0.105-1.008-0.008-1.404,0.26
		l-1.08,0.672c-0.442,0.275-0.577,0.855-0.302,1.297c0.275,0.443,0.856,0.576,1.297,0.303l1.086-0.697l7.907,12.613l-2.383,1.406
		l-9.745-16.24c-0.133-0.223-0.351-0.379-0.603-0.436c-0.253-0.057-0.517-0.006-0.731,0.139c-0.044,0.029-6.452,4.152-8.322,5.23
		c-0.45,0.26-0.597,0.842-0.333,1.291c0.264,0.445,0.841,0.596,1.29,0.332c7.383-4.355,5.877-3.631,7.589-4.746l9.251,15.418
		c-2.24,1.295,0.42-0.266-7.697,4.436c-0.45,0.26-0.604,0.838-0.343,1.287c0.175,0.301,0.491,0.469,0.816,0.469
		c0.16,0,0.322-0.041,0.471-0.127c10.071-5.832,8.522-4.912,8.524-4.912c0.146-0.084,0.262-0.209,0.344-0.352
		c0.122-0.018,0.244-0.049,0.357-0.115l2.469-1.457c0.438-0.258,0.746-0.672,0.867-1.166c0.119-0.494,0.039-1.002-0.231-1.434
		l-0.738-1.18c1.097-0.02,2.109,0.049,3.013,0.213c2.855,0.516,8.332,1.309,12.064,1.309c0.891,0,1.682-0.045,2.314-0.15
		c4.322-0.715,15.066-4.5,16.779-5.602c1.616-1.041,7.502-7.568,7.776-8.623C67.494,45.658,67.01,44.357,65.951,43.721"/>
	<path class="st0" d="M65.951,43.721c-1.297-0.779-3.047-0.35-4.682,1.148c-0.35,0.32-0.69,0.641-1.027,0.957
		c-1.581,1.486-3.074,2.889-4.602,3.441c-0.285,0.104-0.561,0.16-0.869,0.178c-0.519,0.031-0.914,0.479-0.883,0.998
		c0.031,0.518,0.485,0.92,0.996,0.883c0.487-0.029,0.943-0.123,1.396-0.287c1.894-0.686,3.524-2.217,5.251-3.84
		c0.332-0.313,0.668-0.627,1.011-0.943c1.16-1.063,2.021-1.172,2.438-0.92c0.32,0.191,0.465,0.619,0.371,1.076
		c-0.59,1-5.51,6.633-6.99,7.586c-1.417,0.912-11.768,4.617-16.068,5.328c-2.811,0.467-9.755-0.436-13.736-1.154
		c-1.278-0.23-2.729-0.301-4.31-0.211c-0.062,0.004-0.12,0.014-0.177,0.029l-4.799-7.672c1.621-0.963,3.904-2.295,5.115-2.576
		c2.141-0.498,3.975-0.783,5.953-0.561c0.996,0.113,2.098,0.279,3.164,0.438c1.333,0.199,2.594,0.385,3.598,0.469
		c1.095,0.09,4.222-0.037,6.979-0.15c1.72-0.07,3.496-0.143,3.886-0.115c1.949,0.127,3.162,0.764,3.605,1.893
		c0.063,0.16,0.168,0.291,0.294,0.391c-0.172,0.037-0.335,0.123-0.468,0.258c-0.188,0.191-0.729,0.361-1.604,0.504
		c-0.716,0.117-2.259,0.324-3.506,0.355c-0.253,0.006-0.644,0.012-1.106,0.02c-2.781,0.039-4.291,0.082-4.826,0.205
		c-1.156,0.266-2.864,0.969-5.075,2.088c-0.058,0.029-0.103,0.051-0.128,0.064c-0.281,0.121-0.497,0.379-0.553,0.703
		c-0.09,0.512,0.252,1,0.765,1.088c0.062,0.012,0.116,0.018,0.169,0.018c0.219,0,0.385-0.084,0.598-0.193
		c2.586-1.309,3.953-1.773,4.646-1.932c0.453-0.102,3.24-0.143,4.431-0.158c0.472-0.008,0.87-0.014,1.128-0.02
		c1.348-0.035,2.999-0.254,3.762-0.379c1.002-0.164,2.016-0.402,2.645-1.045c0.363-0.371,0.359-0.967-0.014-1.332
		c-0.023-0.023-0.053-0.041-0.078-0.063c0.048-0.01,0.096-0.021,0.143-0.041c0.484-0.189,0.723-0.736,0.532-1.219
		c-0.504-1.285-1.822-2.861-5.235-3.084c-0.464-0.033-1.787,0.02-4.084,0.113c-2.57,0.105-5.771,0.234-6.748,0.154
		c-0.945-0.078-2.175-0.26-3.477-0.455c-1.081-0.16-2.2-0.328-3.229-0.445c-2.25-0.256-4.264,0.055-6.594,0.598
		c-1.501,0.348-3.791,1.688-5.686,2.813l-0.227-0.361c-0.271-0.434-0.695-0.73-1.193-0.838c-0.5-0.105-1.008-0.008-1.404,0.26
		l-1.08,0.672c-0.442,0.275-0.577,0.855-0.302,1.297c0.275,0.443,0.856,0.576,1.297,0.303l1.086-0.697l7.907,12.613l-2.383,1.406
		l-9.745-16.24c-0.133-0.223-0.351-0.379-0.603-0.436c-0.253-0.057-0.517-0.006-0.731,0.139c-0.044,0.029-6.452,4.152-8.322,5.23
		c-0.45,0.26-0.597,0.842-0.333,1.291c0.264,0.445,0.841,0.596,1.29,0.332c7.383-4.355,5.877-3.631,7.589-4.746l9.251,15.418
		c-2.24,1.295,0.42-0.266-7.697,4.436c-0.45,0.26-0.604,0.838-0.343,1.287c0.175,0.301,0.491,0.469,0.816,0.469
		c0.16,0,0.322-0.041,0.471-0.127c10.071-5.832,8.522-4.912,8.524-4.912c0.146-0.084,0.262-0.209,0.344-0.352
		c0.122-0.018,0.244-0.049,0.357-0.115l2.469-1.457c0.438-0.258,0.746-0.672,0.867-1.166c0.119-0.494,0.039-1.002-0.231-1.434
		l-0.738-1.18c1.097-0.02,2.109,0.049,3.013,0.213c2.855,0.516,8.332,1.309,12.064,1.309c0.891,0,1.682-0.045,2.314-0.15
		c4.322-0.715,15.066-4.5,16.779-5.602c1.616-1.041,7.502-7.568,7.776-8.623C67.494,45.658,67.01,44.357,65.951,43.721z"/>
	<polyline class="st1" points="57.742,12.994 39.113,3.699 20.483,12.994 	"/>
	<line class="st1" x1="26.178" y1="31.913" x2="26.178" y2="14.209"/>
	<line class="st1" x1="52.047" y1="14.209" x2="52.047" y2="31.914"/>
	<rect x="22.115" y="32.935" class="st1" width="33.995" height="7.819"/>
	<rect x="35.852" y="14.609" class="st1" width="6.253" height="7.377"/>
	<line class="st1" x1="26.421" y1="27.034" x2="44.489" y2="27.034"/>
	<line class="st1" x1="48.701" y1="27.034" x2="48.701" y2="27.034"/>
</g>
</svg>
