<?xml version="1.0" encoding="utf-8"?>
<!-- Generator: Adobe Illustrator 16.0.0, SVG Export Plug-In . SVG Version: 6.00 Build 0)  -->
<!DOCTYPE svg PUBLIC "-//W3C//DTD SVG 1.1//EN" "http://www.w3.org/Graphics/SVG/1.1/DTD/svg11.dtd">
<svg version="1.1" xmlns="http://www.w3.org/2000/svg" xmlns:xlink="http://www.w3.org/1999/xlink" x="0px" y="0px" width="70.25px"
	 height="61px" viewBox="0 0 70.25 61" style="enable-background:new 0 0 70.25 61;" xml:space="preserve">
<style type="text/css">
<![CDATA[
	.st0{fill:none;stroke:#45B5A9;stroke-width:2.5;stroke-miterlimit:10;}
	.st1{fill:none;stroke:#F3FAF9;stroke-width:2.5;stroke-linecap:round;stroke-linejoin:round;}
	.st2{fill:#F3FAF9;}
	.st3{fill:none;stroke:#45B5A9;stroke-width:5;stroke-linecap:round;stroke-linejoin:round;stroke-miterlimit:10;}
	.st4{fill:none;stroke:#45B5A9;stroke-width:2.5;stroke-linecap:round;stroke-linejoin:round;stroke-miterlimit:10;}
	.st5{fill:none;stroke:#45B5A9;stroke-width:2.5;stroke-linecap:round;stroke-linejoin:round;}
]]>
</style>
<g id="レイヤー_1">
</g>
<g id="編集モード">
	<polygon class="st5" points="59.361,52.85 59.361,42.292 23.917,42.292 23.917,6.848 13.359,6.848 13.359,52.85 	"/>
	<circle class="st5" cx="18.639" cy="16.086" r="2.834"/>
	<circle class="st5" cx="49.746" cy="47.593" r="2.834"/>
	<line class="st5" x1="18.544" y1="24.287" x2="18.544" y2="42.48"/>
	<line class="st5" x1="18.544" y1="47.477" x2="18.544" y2="47.571"/>
	<line class="st5" x1="23.022" y1="47.43" x2="41.215" y2="47.43"/>
	<circle class="st1" cx="40.794" cy="20.261" r="10.309"/>
	<path class="st1" d="M46.371,20.261c0-3.08-2.498-5.576-5.576-5.576"/>
	<line class="st1" x1="54.262" y1="34.727" x2="48.609" y2="29.073"/>
	<path class="st2" d="M51.104,20.261c0-5.693-4.615-10.309-10.31-10.309c-5.692,0-10.309,4.615-10.309,10.309
		s4.616,10.309,10.309,10.309C46.488,30.569,51.104,25.954,51.104,20.261"/>
	<circle class="st0" cx="40.794" cy="20.261" r="10.309"/>
	<path class="st2" d="M46.371,20.261c0-3.08-2.498-5.576-5.576-5.576"/>
	<path class="st4" d="M46.371,20.261c0-3.08-2.498-5.576-5.576-5.576"/>
	<line class="st2" x1="54.262" y1="34.727" x2="48.609" y2="29.073"/>
	<line class="st3" x1="54.262" y1="34.727" x2="48.609" y2="29.073"/>
	<line class="st5" x1="45.173" y1="24.362" x2="45.173" y2="24.362"/>
</g>
</svg>
