<?xml version="1.0" encoding="utf-8"?>
<!-- Generator: Adobe Illustrator 16.0.0, SVG Export Plug-In . SVG Version: 6.00 Build 0)  -->
<!DOCTYPE svg PUBLIC "-//W3C//DTD SVG 1.1//EN" "http://www.w3.org/Graphics/SVG/1.1/DTD/svg11.dtd">
<svg version="1.1" xmlns="http://www.w3.org/2000/svg" xmlns:xlink="http://www.w3.org/1999/xlink" x="0px" y="0px" width="76px"
	 height="85.667px" viewBox="0 0 76 85.667" style="enable-background:new 0 0 76 85.667;" xml:space="preserve">
<style type="text/css">
<![CDATA[
	.st0{fill:#45B5A9;}
]]>
</style>
<g id="レイヤー_1">
</g>
<g id="編集モード">
	<path class="st0" d="M6.454,56.321c0-2.43-0.037-4.86,0.01-7.288c0.059-3.019,1.647-5.321,4.207-6.233
		c4.047-1.441,8.174,1.314,8.485,5.703c0.087,1.234,0.031,2.479,0.034,3.717c0.003,2.033-0.013,4.066,0.006,6.1
		c0.014,1.5,0.325,1.812,1.857,1.839c1.536,0.026,3.073,0.002,4.61,0.011c0.494,0.003,0.993,0.008,1.483,0.07
		c2.032,0.257,3.375,1.617,3.398,3.656c0.053,4.711,0.055,9.422,0.001,14.131c-0.025,2.18-1.732,3.766-3.811,3.733
		c-2.023-0.03-3.643-1.579-3.699-3.696c-0.071-2.676-0.021-5.354-0.035-8.031c-0.01-1.904-0.345-2.233-2.26-2.237
		c-3.321-0.005-6.642,0.011-9.963-0.005c-2.798-0.014-4.292-1.51-4.319-4.329C6.435,61.081,6.453,58.701,6.454,56.321 M9.064,56.174
		H9.046c0,2.132,0,4.264,0,6.395c0.001,2.588,0.104,2.692,2.657,2.694c3.221,0.003,6.443-0.034,9.664,0.015
		c2.696,0.043,4.097,1.496,4.129,4.182c0.022,1.834,0.002,3.669,0.006,5.503c0.002,0.991-0.029,1.985,0.036,2.972
		c0.047,0.719,0.462,1.213,1.24,1.221c0.782,0.008,1.149-0.486,1.265-1.201c0.039-0.242,0.034-0.494,0.034-0.741
		c0.002-4.164,0.012-8.329-0.004-12.493c-0.006-1.615-0.401-1.982-2.04-1.993c-1.834-0.012-3.668,0.029-5.501-0.016
		c-2.168-0.054-3.616-1.396-3.882-3.544c-0.061-0.489-0.046-0.989-0.047-1.484c-0.007-2.975,0.021-5.949-0.023-8.924
		c-0.025-1.732-0.968-3.032-2.435-3.563c-2.44-0.884-4.97,0.761-5.062,3.395C8.995,51.116,9.064,53.647,9.064,56.174"/>
	<path class="st0" d="M71.242,56.3c0,2.33-0.066,4.663,0.017,6.989c0.102,2.887-1.864,4.625-4.472,4.53
		c-3.267-0.116-6.541-0.03-9.813-0.025c-1.932,0.003-2.271,0.329-2.279,2.217c-0.012,2.429,0.01,4.858-0.013,7.288
		c-0.006,0.638-0.026,1.306-0.214,1.906c-0.512,1.646-2.229,2.711-3.934,2.539c-1.791-0.182-3.201-1.598-3.381-3.401
		c-0.02-0.197-0.029-0.396-0.029-0.595c-0.002-4.512-0.027-9.023,0.007-13.535c0.019-2.436,1.407-3.891,3.839-4.014
		c1.73-0.09,3.469-0.026,5.204-0.035c2.116-0.012,2.325-0.213,2.327-2.271c0.006-2.975-0.034-5.951,0.014-8.925
		c0.052-3.156,1.839-5.509,4.689-6.313c3.345-0.942,6.908,1.08,7.752,4.448c0.19,0.762,0.261,1.567,0.272,2.354
		C71.265,51.738,71.242,54.019,71.242,56.3 M68.647,56.323h-0.017c0-2.578,0.053-5.156-0.018-7.732
		c-0.057-2.09-1.742-3.656-3.753-3.65c-2.013,0.007-3.616,1.572-3.745,3.67c-0.031,0.494-0.021,0.991-0.021,1.487
		c-0.002,2.826,0.04,5.651-0.016,8.478c-0.052,2.646-1.58,4.112-4.213,4.145c-1.685,0.021-3.369-0.001-5.055,0.006
		c-1.835,0.007-2.188,0.339-2.191,2.143c-0.011,4.065-0.006,8.131,0,12.195c0.002,0.395,0.017,0.798,0.106,1.178
		c0.144,0.599,0.567,0.92,1.19,0.916c0.625-0.003,1.047-0.342,1.181-0.934c0.097-0.428,0.091-0.884,0.093-1.327
		c0.012-2.628-0.027-5.256,0.027-7.882c0.04-1.926,1.281-3.354,3.076-3.645c0.584-0.094,1.185-0.1,1.777-0.101
		c3.221-0.01,6.443,0.011,9.664-0.014c1.598-0.013,1.899-0.338,1.909-1.942C68.658,60.983,68.647,58.653,68.647,56.323"/>
	<path class="st0" d="M24.722,22.786c-1.391-1.085-1.761-2.444-1.734-4.023c0.05-2.972-0.006-5.945,0.021-8.918
		c0.026-2.825,1.492-4.259,4.349-4.263c6.836-0.012,13.671-0.014,20.508,0.001c2.795,0.005,4.306,1.517,4.329,4.322
		c0.024,3.072,0.029,6.145-0.002,9.216c-0.028,2.704-1.547,4.235-4.269,4.256c-4.705,0.035-9.412,0.039-14.117-0.01
		c-1.109-0.012-1.986,0.3-2.851,0.971c-2.426,1.883-4.901,3.701-7.356,5.544c-0.238,0.178-0.483,0.347-0.716,0.531
		c-0.629,0.498-1.308,0.809-2.002,0.19c-0.712-0.635-0.423-1.319,0.028-1.989c1.107-1.643,2.199-3.295,3.293-4.946
		C24.364,23.424,24.5,23.166,24.722,22.786 M27.395,23.544c0.06,0.055,0.121,0.109,0.181,0.164c0.582-0.435,1.2-0.828,1.739-1.311
		c1.369-1.228,2.934-1.666,4.774-1.633c4.559,0.082,9.121,0.036,13.683,0.021c1.539-0.005,1.82-0.291,1.83-1.844
		c0.018-2.976,0.017-5.951,0-8.926c-0.008-1.541-0.301-1.867-1.817-1.871c-6.791-0.019-13.582-0.018-20.373-0.001
		c-1.564,0.004-1.896,0.367-1.905,1.97c-0.017,2.876-0.013,5.752-0.002,8.629c0.006,1.503,0.027,1.512,1.509,2.103
		c0.98,0.392,1.224,1.006,0.779,2.004C27.684,23.091,27.529,23.313,27.395,23.544"/>
	<path class="st0" d="M38.203,33.528c2.873,0,5.746-0.011,8.621,0.003c2.423,0.011,3.494,0.885,4.045,3.25
		c0.275,1.177,0.564,1.392,1.759,1.192c0.926-0.155,1.841-0.382,2.767-0.549c0.725-0.131,1.403-0.084,1.736,0.733
		c0.305,0.747-0.119,1.237-0.637,1.658c-1.346,1.093-2.664,2.229-4.076,3.229c-1.121,0.794-1.674,1.725-1.516,3.116
		c0.078,0.681,0.016,1.39-0.08,2.073c-0.228,1.605-1.286,2.688-2.883,2.969c-0.531,0.093-1.084,0.108-1.625,0.109
		c-5.401,0.008-10.803,0.005-16.203,0.005c-0.297,0-0.596,0.008-0.892-0.013c-2.308-0.157-3.676-1.498-3.711-3.801
		c-0.05-3.42-0.056-6.841,0.004-10.26c0.041-2.289,1.492-3.68,3.771-3.706C32.257,33.503,35.23,33.529,38.203,33.528 M51.314,40.63
		c-1.842-0.603-2.809-1.723-2.957-3.492c-0.076-0.907-0.729-1.092-1.483-1.093c-5.745-0.003-11.489-0.014-17.233,0.007
		c-1.291,0.004-1.541,0.289-1.548,1.608c-0.017,3.17-0.018,6.341,0.001,9.511c0.008,1.332,0.234,1.529,1.569,1.565
		c0.395,0.011,0.792,0.003,1.188,0.003c4.902,0,9.805,0,14.708,0c2.805,0,2.805-0.001,2.805-2.733c0.002-0.297,0.011-0.595,0-0.891
		c-0.049-1.395,0.513-2.488,1.604-3.338C50.383,41.456,50.77,41.097,51.314,40.63"/>
	<path class="st0" d="M39.47,56.403v1.836c0,6.988,0,13.975-0.001,20.963c0,0.445,0.016,0.895-0.025,1.336
		c-0.07,0.749-0.507,1.201-1.258,1.191c-0.676-0.008-1.1-0.428-1.176-1.108c-0.055-0.491-0.051-0.989-0.051-1.483
		c-0.003-6.987-0.002-13.976-0.002-20.963v-1.771h-1.609c-2.923,0-5.846,0.004-8.769-0.005c-0.442-0.001-0.964,0.071-1.307-0.13
		c-0.411-0.243-0.852-0.703-0.95-1.144c-0.147-0.657,0.363-1.09,1.006-1.247c0.283-0.07,0.589-0.062,0.885-0.062
		c7.976-0.003,15.952-0.004,23.928,0.001c0.346,0,0.778-0.075,1.014,0.099c0.4,0.294,0.923,0.75,0.936,1.154
		c0.014,0.394-0.475,0.919-0.877,1.176c-0.331,0.212-0.859,0.15-1.301,0.151c-2.924,0.011-5.846,0.006-8.77,0.006H39.47z"/>
	<path class="st0" d="M12.877,41.097c-3.484,0.031-6.37-2.791-6.407-6.265c-0.036-3.457,2.825-6.346,6.304-6.365
		c3.503-0.019,6.363,2.78,6.4,6.264C19.211,38.194,16.371,41.066,12.877,41.097 M16.582,34.777c-0.003-2.11-1.684-3.809-3.767-3.802
		c-2.085,0.007-3.755,1.706-3.752,3.819c0.003,2.101,1.691,3.801,3.769,3.796C14.908,38.585,16.585,36.88,16.582,34.777"/>
	<path class="st0" d="M64.822,28.467c3.499-0.021,6.357,2.778,6.4,6.267c0.041,3.451-2.816,6.338-6.304,6.364
		c-3.491,0.026-6.375-2.797-6.401-6.265C58.493,31.368,61.344,28.489,64.822,28.467 M61.112,34.758
		c-0.011,2.105,1.653,3.814,3.731,3.831c2.077,0.016,3.776-1.677,3.787-3.776c0.012-2.117-1.643-3.816-3.734-3.836
		C62.816,30.957,61.123,32.649,61.112,34.758"/>
	<path class="st0" d="M37.509,15.726c-2.429,0-4.858,0.002-7.286-0.002c-0.396-0.001-0.807,0.029-1.183-0.066
		c-0.579-0.146-0.929-0.548-0.925-1.184c0.004-0.629,0.321-1.044,0.924-1.176c0.382-0.083,0.787-0.082,1.182-0.083
		c4.907-0.005,9.814-0.005,14.721,0.001c0.396,0,0.797,0.013,1.184,0.085c0.627,0.116,0.932,0.579,0.934,1.169
		c0.001,0.594-0.322,1.054-0.932,1.184c-0.383,0.082-0.788,0.068-1.184,0.069C42.466,15.728,39.987,15.726,37.509,15.726"/>
	<path class="st0" d="M38.236,43.676c-1.832,0-3.664,0.004-5.496-0.003c-0.395-0.001-0.883,0.095-1.161-0.096
		c-0.401-0.277-0.894-0.775-0.894-1.178c0-0.393,0.516-0.858,0.909-1.154c0.235-0.178,0.668-0.121,1.012-0.122
		c3.713-0.007,7.427-0.005,11.14-0.003c0.248,0,0.498-0.003,0.742,0.033c0.908,0.134,1.332,0.576,1.268,1.332
		c-0.066,0.772-0.551,1.141-1.281,1.175c-0.742,0.034-1.484,0.015-2.229,0.016C40.91,43.677,39.573,43.676,38.236,43.676"/>
</g>
</svg>
