<?xml version="1.0" encoding="utf-8"?>
<!-- Generator: Adobe Illustrator 16.0.0, SVG Export Plug-In . SVG Version: 6.00 Build 0)  -->
<!DOCTYPE svg PUBLIC "-//W3C//DTD SVG 1.1//EN" "http://www.w3.org/Graphics/SVG/1.1/DTD/svg11.dtd">
<svg version="1.1" xmlns="http://www.w3.org/2000/svg" xmlns:xlink="http://www.w3.org/1999/xlink" x="0px" y="0px" width="70.25px"
	 height="61px" viewBox="0 0 70.25 61" style="enable-background:new 0 0 70.25 61;" xml:space="preserve">
<style type="text/css">
<![CDATA[
	.st0{fill:#F3FAF9;}
	.st1{fill:none;stroke:#45B5A9;stroke-width:2.656;stroke-linecap:round;stroke-linejoin:round;stroke-miterlimit:10;}
	.st2{fill:none;stroke:#45B5A9;stroke-width:2.5;stroke-linecap:round;stroke-linejoin:round;stroke-miterlimit:10;}
]]>
</style>
<g id="レイヤー_1">
</g>
<g id="編集モード">
	<polyline class="st2" points="62.518,16.238 35.218,2.617 7.919,16.238 	"/>
	<line class="st2" x1="16.264" y1="43.963" x2="16.264" y2="18.021"/>
	<line class="st2" x1="54.174" y1="18.02" x2="54.174" y2="43.963"/>
	<rect x="10.31" y="45.46" class="st1" width="49.817" height="11.46"/>
	<path class="st0" d="M24.118,50.676h-0.476c-1.293,0-2.341-1.048-2.341-2.341v-5.063c0-1.292,1.048-2.341,2.341-2.341h0.476
		c1.293,0,2.341,1.049,2.341,2.341v5.063C26.459,49.628,25.411,50.676,24.118,50.676"/>
	<path class="st0" d="M35.457,50.676h-0.476c-1.293,0-2.342-1.048-2.342-2.341v-5.063c0-1.292,1.048-2.341,2.342-2.341h0.476
		c1.293,0,2.341,1.049,2.341,2.341v5.063C37.797,49.628,36.75,50.676,35.457,50.676"/>
	<path class="st0" d="M46.795,50.676h-0.477c-1.293,0-2.342-1.048-2.342-2.341v-5.063c0-1.292,1.049-2.341,2.342-2.341h0.477
		c1.293,0,2.34,1.049,2.34,2.341v5.063C49.135,49.628,48.088,50.676,46.795,50.676"/>
	<path class="st2" d="M24.118,50.676h-0.476c-1.293,0-2.341-1.048-2.341-2.341v-5.063c0-1.292,1.048-2.341,2.341-2.341h0.476
		c1.293,0,2.341,1.049,2.341,2.341v5.063C26.459,49.628,25.411,50.676,24.118,50.676z"/>
	<path class="st2" d="M35.457,50.676h-0.476c-1.293,0-2.342-1.048-2.342-2.341v-5.063c0-1.292,1.048-2.341,2.342-2.341h0.476
		c1.293,0,2.341,1.049,2.341,2.341v5.063C37.797,49.628,36.75,50.676,35.457,50.676z"/>
	<path class="st2" d="M46.795,50.676h-0.477c-1.293,0-2.342-1.048-2.342-2.341v-5.063c0-1.292,1.049-2.341,2.342-2.341h0.477
		c1.293,0,2.34,1.049,2.34,2.341v5.063C49.135,49.628,48.088,50.676,46.795,50.676z"/>
	<path class="st2" d="M24.118,50.676h-0.476c-1.293,0-2.341-1.048-2.341-2.341v-5.063c0-1.292,1.048-2.341,2.341-2.341h0.476
		c1.293,0,2.341,1.049,2.341,2.341v5.063C26.459,49.628,25.411,50.676,24.118,50.676z"/>
	<path class="st2" d="M35.457,50.676h-0.476c-1.293,0-2.342-1.048-2.342-2.341v-5.063c0-1.292,1.048-2.341,2.342-2.341h0.476
		c1.293,0,2.341,1.049,2.341,2.341v5.063C37.797,49.628,36.75,50.676,35.457,50.676z"/>
	<path class="st2" d="M46.795,50.676h-0.477c-1.293,0-2.342-1.048-2.342-2.341v-5.063c0-1.292,1.049-2.341,2.342-2.341h0.477
		c1.293,0,2.34,1.049,2.34,2.341v5.063C49.135,49.628,48.088,50.676,46.795,50.676z"/>
	<rect x="30.438" y="18.605" class="st2" width="9.163" height="10.811"/>
	<line class="st2" x1="16.62" y1="36.813" x2="45.334" y2="36.813"/>
	<line class="st2" x1="49.547" y1="36.813" x2="49.547" y2="36.813"/>
</g>
</svg>
