<?xml version="1.0" encoding="utf-8"?>
<!-- Generator: Adobe Illustrator 16.0.0, SVG Export Plug-In . SVG Version: 6.00 Build 0)  -->
<!DOCTYPE svg PUBLIC "-//W3C//DTD SVG 1.1//EN" "http://www.w3.org/Graphics/SVG/1.1/DTD/svg11.dtd">
<svg version="1.1" xmlns="http://www.w3.org/2000/svg" xmlns:xlink="http://www.w3.org/1999/xlink" x="0px" y="0px" width="70.25px"
	 height="53px" viewBox="0 0 70.25 53" style="enable-background:new 0 0 70.25 53;" xml:space="preserve">
<style type="text/css">
<![CDATA[
	.st0{fill:#F3FAF9;}
	.st1{fill:none;stroke:#45B5A9;stroke-width:2.5;stroke-linecap:round;stroke-linejoin:round;}
]]>
</style>
<g id="レイヤー_1">
</g>
<g id="編集モード">
	<polygon class="st1" points="11.744,6.173 4.207,27.677 4.207,43.418 67.976,43.418 67.976,31.532 26.377,31.532 26.377,6.173 	"/>
	<path class="st0" d="M22.326,43.652c0-2.878-2.332-5.211-5.211-5.211c-2.877,0-5.21,2.333-5.21,5.211s2.333,5.211,5.21,5.211
		C19.994,48.863,22.326,46.53,22.326,43.652"/>
	<circle class="st1" cx="17.115" cy="43.652" r="5.211"/>
	<path class="st0" d="M60.698,43.652c0-2.878-2.333-5.211-5.211-5.211s-5.211,2.333-5.211,5.211s2.333,5.211,5.211,5.211
		S60.698,46.53,60.698,43.652"/>
	<circle class="st1" cx="55.487" cy="43.652" r="5.211"/>
	<rect x="32.002" y="17.533" class="st0" width="13.896" height="9.011"/>
	<rect x="32.002" y="17.533" class="st1" width="13.896" height="9.011"/>
	<polygon class="st0" points="19.441,26.545 10.002,26.545 14.677,12.391 19.441,12.391 	"/>
	<polygon class="st1" points="19.441,26.545 10.002,26.545 14.677,12.391 19.441,12.391 	"/>
	<rect x="50.219" y="17.533" class="st0" width="13.896" height="9.011"/>
	<rect x="50.219" y="17.533" class="st1" width="13.896" height="9.011"/>
	<rect x="41.252" y="4.565" class="st0" width="13.896" height="9.011"/>
	<rect x="41.252" y="4.565" class="st1" width="13.896" height="9.011"/>
	<line class="st1" x1="42.998" y1="37.276" x2="26.377" y2="37.276"/>
	<line class="st1" x1="46.602" y1="37.276" x2="46.602" y2="37.276"/>
</g>
</svg>
