<?xml version="1.0" encoding="utf-8"?>
<!-- Generator: Adobe Illustrator 16.0.0, SVG Export Plug-In . SVG Version: 6.00 Build 0)  -->
<!DOCTYPE svg PUBLIC "-//W3C//DTD SVG 1.1//EN" "http://www.w3.org/Graphics/SVG/1.1/DTD/svg11.dtd">
<svg version="1.1" xmlns="http://www.w3.org/2000/svg" xmlns:xlink="http://www.w3.org/1999/xlink" x="0px" y="0px" width="70.25px"
	 height="73.5px" viewBox="0 0 70.25 73.5" style="enable-background:new 0 0 70.25 73.5;" xml:space="preserve">
<style type="text/css">
<![CDATA[
	.st0{fill:none;stroke:#45B5A9;stroke-width:2.5;stroke-linecap:round;stroke-linejoin:round;stroke-miterlimit:10;}
]]>
</style>
<g id="レイヤー_1">
</g>
<g id="編集モード">
	<line class="st0" x1="17.293" y1="51.591" x2="16.042" y2="64.266"/>
	<line class="st0" x1="21.256" y1="51.591" x2="20.283" y2="64.266"/>
	<line class="st0" x1="25.218" y1="51.591" x2="24.523" y2="64.266"/>
	<line class="st0" x1="29.181" y1="51.591" x2="28.764" y2="64.266"/>
	<line class="st0" x1="33.144" y1="51.591" x2="33.004" y2="64.266"/>
	<line class="st0" x1="37.106" y1="51.591" x2="37.245" y2="64.266"/>
	<line class="st0" x1="41.068" y1="51.591" x2="41.484" y2="64.266"/>
	<line class="st0" x1="45.031" y1="51.591" x2="45.727" y2="64.266"/>
	<line class="st0" x1="48.992" y1="51.591" x2="49.967" y2="64.266"/>
	<line class="st0" x1="52.955" y1="51.591" x2="54.207" y2="64.266"/>
	<polygon class="st0" points="31.058,36.088 31.058,39.24 17.294,43.252 17.294,47.263 53.27,47.263 53.27,43.252 39.504,39.24 
		39.504,36.088 	"/>
	<path class="st0" d="M37.835,34.594V8.459c0-1.411-1.144-2.555-2.555-2.555c-1.41,0-2.554,1.144-2.554,2.555v26.135"/>
</g>
</svg>
