<?xml version="1.0" encoding="utf-8"?>
<!-- Generator: Adobe Illustrator 16.0.0, SVG Export Plug-In . SVG Version: 6.00 Build 0)  -->
<!DOCTYPE svg PUBLIC "-//W3C//DTD SVG 1.1//EN" "http://www.w3.org/Graphics/SVG/1.1/DTD/svg11.dtd">
<svg version="1.1" xmlns="http://www.w3.org/2000/svg" xmlns:xlink="http://www.w3.org/1999/xlink" x="0px" y="0px" width="75px"
	 height="70.5px" viewBox="0 0 75 70.5" style="enable-background:new 0 0 75 70.5;" xml:space="preserve">
<style type="text/css">
<![CDATA[
	.st0{fill:#F3FAF9;}
	.st1{fill:none;stroke:#45B5A9;stroke-width:2.656;stroke-linecap:round;stroke-linejoin:round;stroke-miterlimit:10;}
	.st2{fill:none;stroke:#45B5A9;stroke-width:2.5;stroke-linecap:round;stroke-linejoin:round;stroke-miterlimit:10;}
]]>
</style>
<g id="レイヤー_1">
</g>
<g id="編集モード">
	<polyline class="st2" points="69.983,25.417 42.684,11.796 15.385,25.417 	"/>
	<line class="st2" x1="23.729" y1="53.142" x2="23.729" y2="27.198"/>
	<line class="st2" x1="61.639" y1="27.199" x2="61.639" y2="53.142"/>
	<rect x="17.775" y="54.639" class="st1" width="49.817" height="11.46"/>
	<rect x="37.903" y="27.784" class="st2" width="9.164" height="10.812"/>
	<line class="st2" x1="24.085" y1="45.993" x2="52.8" y2="45.993"/>
	<line class="st2" x1="57.013" y1="45.993" x2="57.013" y2="45.993"/>
	<path class="st0" d="M73.46,9.169c-4.802-1.177-5.755-2.129-6.931-6.931c-1.176,4.802-2.129,5.754-6.931,6.931
		c4.802,1.176,5.755,2.129,6.931,6.93C67.705,11.298,68.658,10.345,73.46,9.169"/>
	<path class="st2" d="M73.46,9.169c-4.802-1.177-5.755-2.129-6.931-6.931c-1.176,4.802-2.129,5.754-6.931,6.931
		c4.802,1.176,5.755,2.129,6.931,6.93C67.705,11.298,68.658,10.345,73.46,9.169z"/>
	<path class="st0" d="M17.085,41.767c-4.801-1.177-5.755-2.129-6.93-6.931c-1.176,4.802-2.129,5.754-6.931,6.931
		c4.802,1.176,5.755,2.129,6.931,6.93C11.33,43.896,12.284,42.943,17.085,41.767"/>
	<path class="st2" d="M17.085,41.767c-4.801-1.177-5.755-2.129-6.93-6.931c-1.176,4.802-2.129,5.754-6.931,6.931
		c4.802,1.176,5.755,2.129,6.931,6.93C11.33,43.896,12.284,42.943,17.085,41.767z"/>
</g>
</svg>
