<?xml version="1.0" encoding="utf-8"?>
<!-- Generator: Adobe Illustrator 16.0.0, SVG Export Plug-In . SVG Version: 6.00 Build 0)  -->
<!DOCTYPE svg PUBLIC "-//W3C//DTD SVG 1.1//EN" "http://www.w3.org/Graphics/SVG/1.1/DTD/svg11.dtd">
<svg version="1.1" xmlns="http://www.w3.org/2000/svg" xmlns:xlink="http://www.w3.org/1999/xlink" x="0px" y="0px" width="70.25px"
	 height="61px" viewBox="0 0 70.25 61" style="enable-background:new 0 0 70.25 61;" xml:space="preserve">
<style type="text/css">
<![CDATA[
	.st0{fill:none;stroke:#45B5A9;stroke-width:2.386;stroke-linecap:round;stroke-linejoin:round;stroke-miterlimit:10;}
	.st1{fill:#F3FAF9;}
	.st2{fill:none;stroke:#45B5A9;stroke-width:2.519;stroke-linecap:round;stroke-linejoin:round;stroke-miterlimit:10;}
	.st3{fill:none;stroke:#45B5A9;stroke-width:2.656;stroke-linecap:round;stroke-linejoin:round;stroke-miterlimit:10;}
	.st4{fill:none;stroke:#45B5A9;stroke-width:2.5;stroke-linecap:round;stroke-linejoin:round;stroke-miterlimit:10;}
]]>
</style>
<g id="レイヤー_1">
</g>
<g id="編集モード">
	<polyline class="st4" points="62.706,16.97 35.407,3.349 8.108,16.97 	"/>
	<line class="st4" x1="16.452" y1="44.695" x2="16.452" y2="18.751"/>
	<line class="st4" x1="54.362" y1="18.751" x2="54.362" y2="44.695"/>
	<rect x="10.499" y="46.191" class="st3" width="49.816" height="11.46"/>
	<rect x="30.627" y="19.337" class="st4" width="9.164" height="10.811"/>
	<line class="st4" x1="16.808" y1="37.545" x2="45.522" y2="37.545"/>
	<line class="st4" x1="49.735" y1="37.545" x2="49.735" y2="37.545"/>
	<path class="st1" d="M63.908,18.177c0-3.262-3.931-10.158-5.96-13.495c-0.581-0.956-1.835-0.957-2.42-0.004
		c-2.045,3.335-5.904,10.233-5.904,13.499c0,4.394,3.198,7.957,7.143,7.957S63.908,22.571,63.908,18.177"/>
	<path class="st2" d="M63.908,18.177c0-3.262-3.931-10.158-5.96-13.495c-0.581-0.956-1.835-0.957-2.42-0.004
		c-2.045,3.335-5.904,10.233-5.904,13.499c0,4.394,3.198,7.957,7.143,7.957S63.908,22.571,63.908,18.177z"/>
	<path class="st1" d="M56.608,21.811c1.791,0,3.242-1.452,3.242-3.242"/>
	<path class="st0" d="M56.608,21.811c1.791,0,3.242-1.452,3.242-3.242"/>
</g>
</svg>
