<?xml version="1.0" encoding="utf-8"?>
<!-- Generator: Adobe Illustrator 16.0.0, SVG Export Plug-In . SVG Version: 6.00 Build 0)  -->
<!DOCTYPE svg PUBLIC "-//W3C//DTD SVG 1.1//EN" "http://www.w3.org/Graphics/SVG/1.1/DTD/svg11.dtd">
<svg version="1.1" xmlns="http://www.w3.org/2000/svg" xmlns:xlink="http://www.w3.org/1999/xlink" x="0px" y="0px" width="83.25px"
	 height="98.754px" viewBox="0 0 83.25 98.754" style="enable-background:new 0 0 83.25 98.754;" xml:space="preserve">
<style type="text/css">
<![CDATA[
	.st0{fill:#F3FAF9;}
	.st1{fill:#45B5A9;}
]]>
</style>
<g id="レイヤー_1">
</g>
<g id="編集モード">
	<path class="st1" d="M71.705,93.5H21.469c-2.527,0-4.583-2.057-4.583-4.584V19.655c0-2.527,2.057-4.583,4.583-4.583h50.236
		c2.528,0,4.585,2.056,4.585,4.583v69.261C76.29,91.443,74.233,93.5,71.705,93.5z M21.469,18.25c-0.775,0-1.405,0.63-1.405,1.405
		v69.261c0,0.775,0.63,1.406,1.405,1.406h50.236c0.776,0,1.407-0.631,1.407-1.406V19.655c0-0.774-0.631-1.405-1.407-1.405H21.469z"
		/>
	<path class="st1" d="M66.115,87.1H27.06c-2.023,0-3.669-1.646-3.669-3.67V25.775c0-2.024,1.646-3.67,3.669-3.67h39.056
		c2.023,0,3.669,1.646,3.669,3.67V83.43C69.784,85.453,68.139,87.1,66.115,87.1z M27.06,25.283c-0.271,0-0.491,0.221-0.491,0.492
		V83.43c0,0.271,0.221,0.492,0.491,0.492h39.056c0.271,0,0.491-0.221,0.491-0.492V25.775c0-0.271-0.221-0.492-0.491-0.492H27.06z"/>
	<path class="st0" d="M59.065,12.645h-4.462c0.004-0.106,0.017-0.211,0.017-0.317c0-4.437-3.597-8.033-8.032-8.033
		c-4.437,0-8.033,3.596-8.033,8.033c0,0.106,0.012,0.211,0.017,0.317H34.11c-1.164,0-2.107,0.944-2.107,2.108v11.425
		c0,1.164,0.943,2.108,2.107,2.108h24.955c1.163,0,2.106-0.944,2.106-2.108V14.753C61.172,13.588,60.229,12.645,59.065,12.645"/>
	<path class="st1" d="M59.065,29.875H34.11c-2.038,0-3.696-1.659-3.696-3.697V14.753c0-2.039,1.658-3.697,3.696-3.697h2.938
		c0.625-4.707,4.664-8.351,9.539-8.351c4.874,0,8.914,3.644,9.538,8.351h2.939c2.038,0,3.695,1.659,3.695,3.697v11.425
		C62.761,28.217,61.104,29.875,59.065,29.875z M34.11,14.234c-0.286,0-0.519,0.233-0.519,0.519v11.425
		c0,0.286,0.232,0.519,0.519,0.519h24.955c0.285,0,0.518-0.233,0.518-0.519V14.753c0-0.286-0.232-0.519-0.518-0.519h-4.462
		c-0.433,0-0.847-0.177-1.146-0.488c-0.299-0.312-0.459-0.732-0.441-1.164l0.011-0.179c0.005-3.628-2.886-6.519-6.438-6.519
		c-3.554,0-6.444,2.891-6.444,6.444l0.016,0.254c0.017,0.432-0.143,0.853-0.442,1.164s-0.713,0.488-1.146,0.488H34.11z"/>
	<line class="st0" x1="32.989" y1="20.864" x2="60.187" y2="20.864"/>
	<path class="st1" d="M60.187,22.453H32.989c-0.879,0-1.589-0.712-1.589-1.589s0.71-1.589,1.589-1.589h27.197
		c0.878,0,1.589,0.711,1.589,1.589S61.064,22.453,60.187,22.453z"/>
	<path class="st1" d="M55.142,56.727H33.058c-0.878,0-1.589-0.711-1.589-1.59c0-0.877,0.711-1.588,1.589-1.588h22.084
		c0.878,0,1.589,0.711,1.589,1.588C56.73,56.016,56.02,56.727,55.142,56.727z"/>
	<path class="st1" d="M60.539,63.699H33.058c-0.878,0-1.589-0.711-1.589-1.59c0-0.877,0.711-1.588,1.589-1.588h27.481
		c0.878,0,1.589,0.711,1.589,1.588C62.128,62.988,61.417,63.699,60.539,63.699z"/>
	<path class="st1" d="M60.539,70.672H33.058c-0.878,0-1.589-0.711-1.589-1.588c0-0.879,0.711-1.59,1.589-1.59h27.481
		c0.878,0,1.589,0.711,1.589,1.59C62.128,69.961,61.417,70.672,60.539,70.672z"/>
	<path class="st1" d="M60.538,77.646H33.057c-0.878,0-1.589-0.711-1.589-1.59c0-0.877,0.711-1.588,1.589-1.588h27.481
		c0.878,0,1.589,0.711,1.589,1.588C62.127,76.936,61.416,77.646,60.538,77.646z"/>
	<path class="st1" d="M60.197,56.725c-0.426,0-0.825-0.166-1.12-0.469c-0.296-0.297-0.461-0.695-0.461-1.121
		c0-0.417,0.165-0.826,0.461-1.121c0.59-0.591,1.649-0.591,2.249,0c0.295,0.295,0.461,0.704,0.461,1.121
		c0,0.426-0.166,0.824-0.461,1.129C61.022,56.559,60.623,56.725,60.197,56.725z"/>
	<path class="st0" d="M18.642,95.205l-6.875-3.533c-0.421-0.217-0.588-0.734-0.371-1.156L32.608,49.23
		c0.218-0.421,0.735-0.587,1.157-0.372l6.876,3.534c0.421,0.217,0.588,0.734,0.37,1.155L19.798,94.834
		C19.581,95.254,19.064,95.422,18.642,95.205"/>
	<path class="st1" d="M19.034,96.889c-0.387,0-0.774-0.094-1.119-0.271l-6.874-3.533c-0.583-0.299-1.012-0.807-1.212-1.428
		c-0.2-0.623-0.145-1.287,0.155-1.869l21.211-41.284c0.424-0.82,1.258-1.329,2.18-1.329c0.384,0,0.769,0.094,1.112,0.269l6.88,3.536
		c1.203,0.62,1.676,2.099,1.058,3.297L21.212,95.561C20.788,96.381,19.954,96.889,19.034,96.889z M13.143,90.594l5.576,2.863
		l20.545-39.986l-5.576-2.865L13.143,90.594z"/>
	<path class="st0" d="M42.034,41.224l-0.752,11.797c-0.185,0.36-0.676,0.475-1.097,0.258l-6.876-3.533
		c-0.422-0.217-0.614-0.682-0.43-1.042L42.034,41.224z"/>
	<path class="st1" d="M40.628,54.977c-0.402,0-0.807-0.098-1.171-0.286l-6.874-3.532c-0.538-0.276-0.96-0.729-1.185-1.274
		c-0.258-0.626-0.233-1.32,0.068-1.907c0.101-0.194,0.238-0.365,0.408-0.504l9.154-7.479c0.488-0.401,1.17-0.472,1.731-0.184
		c0.562,0.29,0.899,0.884,0.859,1.515l-0.751,11.797c-0.015,0.218-0.073,0.431-0.173,0.626
		C42.306,54.506,41.514,54.977,40.628,54.977z M35.147,48.903l4.653,2.392l0.416-6.533L35.147,48.903z"/>
</g>
</svg>
