<?xml version="1.0" encoding="utf-8"?>
<!-- Generator: Adobe Illustrator 16.0.0, SVG Export Plug-In . SVG Version: 6.00 Build 0)  -->
<!DOCTYPE svg PUBLIC "-//W3C//DTD SVG 1.1//EN" "http://www.w3.org/Graphics/SVG/1.1/DTD/svg11.dtd">
<svg version="1.1" xmlns="http://www.w3.org/2000/svg" xmlns:xlink="http://www.w3.org/1999/xlink" x="0px" y="0px" width="70.25px"
	 height="70.5px" viewBox="0 0 70.25 70.5" style="enable-background:new 0 0 70.25 70.5;" xml:space="preserve">
<style type="text/css">
<![CDATA[
	.st0{fill:none;stroke:#45B5A9;stroke-width:0.5;stroke-linecap:round;stroke-linejoin:round;stroke-miterlimit:10;}
	.st1{fill:none;stroke:#45B5A9;stroke-width:4;stroke-linecap:round;stroke-linejoin:round;stroke-miterlimit:10;}
	.st2{fill:none;stroke:#45B5A9;stroke-width:2.5;stroke-linecap:round;stroke-linejoin:round;stroke-miterlimit:10;}
	.st3{fill:#45B5A9;}
]]>
</style>
<g id="レイヤー_1">
</g>
<g id="編集モード">
	<path class="st3" d="M66.919,41.342c-1.297-0.78-3.047-0.351-4.682,1.148c-0.35,0.319-0.69,0.641-1.027,0.957
		c-1.581,1.485-3.074,2.889-4.602,3.44c-0.285,0.104-0.561,0.16-0.869,0.179c-0.519,0.031-0.914,0.478-0.883,0.996
		c0.031,0.52,0.485,0.921,0.996,0.884c0.487-0.029,0.943-0.123,1.396-0.287c1.894-0.685,3.524-2.217,5.251-3.84
		c0.332-0.312,0.668-0.627,1.011-0.942c1.16-1.063,2.021-1.172,2.438-0.921c0.32,0.192,0.465,0.619,0.371,1.077
		c-0.59,0.999-5.51,6.632-6.99,7.586c-1.417,0.912-11.768,4.617-16.068,5.328c-2.811,0.466-9.755-0.437-13.736-1.155
		c-1.279-0.231-2.729-0.301-4.31-0.21c-0.061,0.004-0.12,0.014-0.177,0.029l-4.798-7.674c1.621-0.961,3.903-2.294,5.114-2.575
		c2.141-0.497,3.975-0.782,5.954-0.559c0.996,0.112,2.098,0.277,3.164,0.436c1.333,0.198,2.594,0.387,3.598,0.47
		c1.095,0.09,4.222-0.038,6.979-0.15c1.72-0.069,3.496-0.143,3.886-0.116c1.949,0.127,3.162,0.764,3.605,1.893
		c0.063,0.161,0.168,0.291,0.294,0.391c-0.172,0.038-0.335,0.123-0.468,0.259c-0.188,0.191-0.729,0.361-1.604,0.505
		c-0.716,0.115-2.259,0.322-3.506,0.354c-0.253,0.006-0.644,0.012-1.106,0.02c-2.781,0.04-4.291,0.083-4.826,0.206
		c-1.156,0.265-2.864,0.968-5.075,2.088c-0.058,0.028-0.103,0.051-0.128,0.064c-0.281,0.122-0.497,0.378-0.553,0.702
		c-0.09,0.512,0.252,1,0.765,1.089c0.062,0.012,0.116,0.017,0.169,0.017c0.219,0,0.385-0.084,0.598-0.192
		c2.586-1.309,3.953-1.774,4.646-1.933c0.453-0.102,3.24-0.142,4.431-0.158c0.472-0.007,0.87-0.013,1.128-0.02
		c1.348-0.033,2.999-0.254,3.762-0.379c1.002-0.163,2.016-0.402,2.645-1.044c0.363-0.371,0.359-0.967-0.014-1.331
		c-0.023-0.024-0.053-0.043-0.078-0.063c0.048-0.012,0.096-0.022,0.143-0.041c0.484-0.19,0.723-0.736,0.532-1.221
		c-0.504-1.283-1.822-2.86-5.235-3.084c-0.464-0.03-1.787,0.021-4.084,0.114c-2.57,0.105-5.771,0.235-6.748,0.155
		c-0.945-0.078-2.175-0.261-3.477-0.455c-1.081-0.161-2.2-0.328-3.228-0.444c-2.251-0.256-4.264,0.054-6.594,0.596
		c-1.501,0.349-3.791,1.688-5.686,2.813l-0.226-0.362c-0.271-0.433-0.695-0.729-1.194-0.836c-0.499-0.105-1.008-0.009-1.404,0.259
		l-1.08,0.673c-0.442,0.274-0.577,0.855-0.302,1.297c0.275,0.441,0.856,0.577,1.297,0.302l1.086-0.696l7.907,12.613l-2.383,1.406
		l-9.744-16.241c-0.133-0.222-0.351-0.379-0.603-0.435c-0.253-0.057-0.517-0.006-0.731,0.138c-0.044,0.03-6.452,4.153-8.322,5.231
		c-0.45,0.26-0.597,0.842-0.333,1.289c0.264,0.448,0.841,0.598,1.29,0.333c7.383-4.354,5.877-3.631,7.589-4.745l9.251,15.417
		c-2.241,1.295,0.42-0.266-7.697,4.436c-0.45,0.26-0.604,0.838-0.343,1.287c0.175,0.301,0.491,0.469,0.816,0.469
		c0.16,0,0.322-0.041,0.471-0.127c10.071-5.832,8.523-4.912,8.524-4.912c0.146-0.084,0.262-0.209,0.344-0.352
		c0.122-0.018,0.244-0.049,0.357-0.115l2.47-1.457c0.438-0.258,0.745-0.672,0.866-1.166c0.12-0.493,0.039-1.003-0.231-1.433
		l-0.738-1.182c1.097-0.019,2.109,0.05,3.012,0.212c2.856,0.517,8.333,1.311,12.065,1.31c0.891,0,1.682-0.045,2.314-0.149
		c4.322-0.715,15.066-4.5,16.779-5.603c1.616-1.041,7.502-7.568,7.776-8.623C68.462,43.28,67.978,41.978,66.919,41.342"/>
	<path class="st0" d="M66.919,41.342c-1.297-0.78-3.047-0.351-4.682,1.148c-0.35,0.319-0.69,0.641-1.027,0.957
		c-1.581,1.485-3.074,2.889-4.602,3.44c-0.285,0.104-0.561,0.16-0.869,0.179c-0.519,0.031-0.914,0.478-0.883,0.996
		c0.031,0.52,0.485,0.921,0.996,0.884c0.487-0.029,0.943-0.123,1.396-0.287c1.894-0.685,3.524-2.217,5.251-3.84
		c0.332-0.312,0.668-0.627,1.011-0.942c1.16-1.063,2.021-1.172,2.438-0.921c0.32,0.192,0.465,0.619,0.371,1.077
		c-0.59,0.999-5.51,6.632-6.99,7.586c-1.417,0.912-11.768,4.617-16.068,5.328c-2.811,0.466-9.755-0.437-13.736-1.155
		c-1.279-0.231-2.729-0.301-4.31-0.21c-0.061,0.004-0.12,0.014-0.177,0.029l-4.798-7.674c1.621-0.961,3.903-2.294,5.114-2.575
		c2.141-0.497,3.975-0.782,5.954-0.559c0.996,0.112,2.098,0.277,3.164,0.436c1.333,0.198,2.594,0.387,3.598,0.47
		c1.095,0.09,4.222-0.038,6.979-0.15c1.72-0.069,3.496-0.143,3.886-0.116c1.949,0.127,3.162,0.764,3.605,1.893
		c0.063,0.161,0.168,0.291,0.294,0.391c-0.172,0.038-0.335,0.123-0.468,0.259c-0.188,0.191-0.729,0.361-1.604,0.505
		c-0.716,0.115-2.259,0.322-3.506,0.354c-0.253,0.006-0.644,0.012-1.106,0.02c-2.781,0.04-4.291,0.083-4.826,0.206
		c-1.156,0.265-2.864,0.968-5.075,2.088c-0.058,0.028-0.103,0.051-0.128,0.064c-0.281,0.122-0.497,0.378-0.553,0.702
		c-0.09,0.512,0.252,1,0.765,1.089c0.062,0.012,0.116,0.017,0.169,0.017c0.219,0,0.385-0.084,0.598-0.192
		c2.586-1.309,3.953-1.774,4.646-1.933c0.453-0.102,3.24-0.142,4.431-0.158c0.472-0.007,0.87-0.013,1.128-0.02
		c1.348-0.033,2.999-0.254,3.762-0.379c1.002-0.163,2.016-0.402,2.645-1.044c0.363-0.371,0.359-0.967-0.014-1.331
		c-0.023-0.024-0.053-0.043-0.078-0.063c0.048-0.012,0.096-0.022,0.143-0.041c0.484-0.19,0.723-0.736,0.532-1.221
		c-0.504-1.283-1.822-2.86-5.235-3.084c-0.464-0.03-1.787,0.021-4.084,0.114c-2.57,0.105-5.771,0.235-6.748,0.155
		c-0.945-0.078-2.175-0.261-3.477-0.455c-1.081-0.161-2.2-0.328-3.228-0.444c-2.251-0.256-4.264,0.054-6.594,0.596
		c-1.501,0.349-3.791,1.688-5.686,2.813l-0.226-0.362c-0.271-0.433-0.695-0.729-1.194-0.836c-0.499-0.105-1.008-0.009-1.404,0.259
		l-1.08,0.673c-0.442,0.274-0.577,0.855-0.302,1.297c0.275,0.441,0.856,0.577,1.297,0.302l1.086-0.696l7.907,12.613l-2.383,1.406
		l-9.744-16.241c-0.133-0.222-0.351-0.379-0.603-0.435c-0.253-0.057-0.517-0.006-0.731,0.138c-0.044,0.03-6.452,4.153-8.322,5.231
		c-0.45,0.26-0.597,0.842-0.333,1.289c0.264,0.448,0.841,0.598,1.29,0.333c7.383-4.354,5.877-3.631,7.589-4.745l9.251,15.417
		c-2.241,1.295,0.42-0.266-7.697,4.436c-0.45,0.26-0.604,0.838-0.343,1.287c0.175,0.301,0.491,0.469,0.816,0.469
		c0.16,0,0.322-0.041,0.471-0.127c10.071-5.832,8.523-4.912,8.524-4.912c0.146-0.084,0.262-0.209,0.344-0.352
		c0.122-0.018,0.244-0.049,0.357-0.115l2.47-1.457c0.438-0.258,0.745-0.672,0.866-1.166c0.12-0.493,0.039-1.003-0.231-1.433
		l-0.738-1.182c1.097-0.019,2.109,0.05,3.012,0.212c2.856,0.517,8.333,1.311,12.065,1.31c0.891,0,1.682-0.045,2.314-0.149
		c4.322-0.715,15.066-4.5,16.779-5.603c1.616-1.041,7.502-7.568,7.776-8.623C68.462,43.28,67.978,41.978,66.919,41.342z"/>
	<circle class="st2" cx="47.389" cy="14.089" r="10.657"/>
	<path class="st3" d="M39.854,6.554c-4.161,4.162-4.161,10.909,0,15.071c4.162,4.16,10.909,4.16,15.071,0L39.854,6.554z"/>
	<path class="st2" d="M39.854,6.554c-4.161,4.162-4.161,10.909,0,15.071c4.162,4.16,10.909,4.16,15.071,0L39.854,6.554z"/>
	<line class="st1" x1="39.017" y1="22.462" x2="24.68" y2="36.798"/>
	<line class="st2" x1="34.025" y1="34.478" x2="30.474" y2="30.926"/>
	<line class="st2" x1="30.473" y1="38.031" x2="26.921" y2="34.479"/>
</g>
</svg>
