<?xml version="1.0" encoding="utf-8"?>
<!-- Generator: Adobe Illustrator 16.0.0, SVG Export Plug-In . SVG Version: 6.00 Build 0)  -->
<!DOCTYPE svg PUBLIC "-//W3C//DTD SVG 1.1//EN" "http://www.w3.org/Graphics/SVG/1.1/DTD/svg11.dtd">
<svg version="1.1" xmlns="http://www.w3.org/2000/svg" xmlns:xlink="http://www.w3.org/1999/xlink" x="0px" y="0px" width="70.25px"
	 height="67px" viewBox="0 0 70.25 67" style="enable-background:new 0 0 70.25 67;" xml:space="preserve">
<style type="text/css">
<![CDATA[
	.st0{fill:#F3FAF9;}
	.st1{fill:none;stroke:#45B5A9;stroke-width:2.5;stroke-linecap:round;stroke-linejoin:round;stroke-miterlimit:10;}
	.st2{fill:none;stroke:#45B5A9;stroke-width:2.5;stroke-linecap:round;stroke-linejoin:round;}
	.st3{fill:none;stroke:#45B5A9;stroke-width:2.5;}
]]>
</style>
<g id="レイヤー_1">
</g>
<g id="編集モード">
	<path class="st0" d="M39.313,54.84l-13.264,6.186c-1.402,0.653-3.068,0.047-3.723-1.354L5.257,23.065
		c-0.654-1.402-0.047-3.068,1.354-3.721l13.264-6.186c1.402-0.653,3.068-0.047,3.723,1.355l17.068,36.606
		C41.32,52.521,40.715,54.187,39.313,54.84"/>
	<path class="st1" d="M39.313,54.84l-13.264,6.186c-1.402,0.653-3.068,0.047-3.723-1.354L5.257,23.065
		c-0.654-1.402-0.047-3.068,1.354-3.721l13.264-6.186c1.402-0.653,3.068-0.047,3.723,1.355l17.068,36.606
		C41.32,52.521,40.715,54.187,39.313,54.84z"/>
	<path class="st0" d="M38.866,54.442l-14.58,1.274c-1.54,0.136-2.899-1.004-3.033-2.545l-3.521-40.237
		c-0.135-1.54,1.004-2.898,2.545-3.033l14.58-1.276c1.541-0.134,2.898,1.005,3.033,2.546l3.521,40.236
		C41.546,52.949,40.407,54.308,38.866,54.442"/>
	<path class="st1" d="M38.866,54.442l-14.58,1.274c-1.54,0.136-2.899-1.004-3.033-2.545l-3.521-40.237
		c-0.135-1.54,1.004-2.898,2.545-3.033l14.58-1.276c1.541-0.134,2.898,1.005,3.033,2.546l3.521,40.236
		C41.546,52.949,40.407,54.308,38.866,54.442z"/>
	<path class="st0" d="M37.361,54.02l-14.137-3.788c-1.494-0.4-2.38-1.936-1.98-3.429L31.699,7.788
		c0.399-1.494,1.936-2.381,3.428-1.979l14.138,3.788c1.494,0.399,2.381,1.935,1.979,3.429L40.791,52.039
		C40.391,53.533,38.855,54.419,37.361,54.02"/>
	<path class="st1" d="M37.361,54.02l-14.137-3.788c-1.494-0.4-2.38-1.936-1.98-3.429L31.699,7.788
		c0.399-1.494,1.936-2.381,3.428-1.979l14.138,3.788c1.494,0.399,2.381,1.935,1.979,3.429L40.791,52.039
		C40.391,53.533,38.855,54.419,37.361,54.02z"/>
	<path class="st0" d="M44.333,14.262l3.838-5.481c0.888-1.267,2.633-1.574,3.899-0.688l11.99,8.395
		c1.267,0.887,1.574,2.633,0.688,3.899L41.581,53.474c-0.888,1.267-2.634,1.573-3.899,0.687l-11.99-8.394
		c-1.267-0.888-1.574-2.634-0.688-3.9L39.3,21.45"/>
	<path class="st1" d="M44.333,14.262l3.838-5.481c0.888-1.267,2.633-1.574,3.899-0.688l11.99,8.395
		c1.267,0.887,1.574,2.633,0.688,3.899L41.581,53.474c-0.888,1.267-2.634,1.573-3.899,0.687l-11.99-8.394
		c-1.267-0.888-1.574-2.634-0.688-3.9L39.3,21.45"/>
	<circle class="st3" cx="38.634" cy="46.583" r="2.86"/>
	<path class="st2" d="M41.854,17.895c0.055-0.026,0.024,0.05-0.01,0.008"/>
</g>
</svg>
