<?xml version="1.0" encoding="utf-8"?>
<!-- Generator: Adobe Illustrator 16.0.0, SVG Export Plug-In . SVG Version: 6.00 Build 0)  -->
<!DOCTYPE svg PUBLIC "-//W3C//DTD SVG 1.1//EN" "http://www.w3.org/Graphics/SVG/1.1/DTD/svg11.dtd">
<svg version="1.1" xmlns="http://www.w3.org/2000/svg" xmlns:xlink="http://www.w3.org/1999/xlink" x="0px" y="0px" width="70.25px"
	 height="73.5px" viewBox="0 0 70.25 73.5" style="enable-background:new 0 0 70.25 73.5;" xml:space="preserve">
<style type="text/css">
<![CDATA[
	.st0{fill:#F3FAF9;}
	.st1{fill:none;stroke:#45B5A9;stroke-width:2.5;stroke-linecap:round;stroke-linejoin:round;stroke-miterlimit:10;}
]]>
</style>
<g id="レイヤー_1">
</g>
<g id="編集モード">
	<path class="st1" d="M13.718,30.536v10.262c0,1.395-1.131,2.525-2.525,2.525h-7.15V28.011h7.15
		C12.587,28.011,13.718,29.141,13.718,30.536z"/>
	<path class="st1" d="M17.911,40.346h10.245v1.093c0,1.835,1.488,3.323,3.323,3.323h7.733c1.835,0,3.322-1.488,3.322-3.323v-1.093
		h10.433c2.621,0,2.998,2.506,2.998,4.416v7.154h10.241V39.589c0-5.8-3.803-8.603-8.243-8.603h-12.06
		c-1.86,0-3.369-1.509-3.369-3.368v-6.305h-3.34V9.623h-7.7v11.691h-3.339v6.305c0,1.859-1.509,3.368-3.369,3.368h-6.876"/>
	<line class="st1" x1="66.207" y1="47.384" x2="55.965" y2="47.384"/>
	<rect x="25.511" y="17.837" class="st0" width="19.667" height="4.894"/>
	<rect x="25.511" y="17.837" class="st1" width="19.667" height="4.894"/>
	<path class="st0" d="M52.967,11.673v-1.256c0-2.009-1.629-3.638-3.64-3.638L37.44,4.966c0-1.252-1.015-2.266-2.267-2.266h0.034
		c-1.25,0-2.265,1.014-2.265,2.266L21.056,6.78c-2.01,0-3.639,1.629-3.639,3.638v1.256H52.967z"/>
	<path class="st1" d="M52.967,11.673v-1.256c0-2.009-1.629-3.638-3.64-3.638L37.44,4.966c0-1.252-1.015-2.266-2.267-2.266h0.034
		c-1.25,0-2.265,1.014-2.265,2.266L21.056,6.78c-2.01,0-3.639,1.629-3.639,3.638v1.256H52.967z"/>
	<line class="st1" x1="36.898" y1="24.094" x2="36.898" y2="35.15"/>
	<line class="st1" x1="36.898" y1="39.805" x2="36.898" y2="39.722"/>
	<path class="st0" d="M65.98,65.645c0-2.234-2.694-6.96-4.085-9.248c-0.398-0.654-1.258-0.655-1.657-0.003
		c-1.401,2.286-4.047,7.014-4.047,9.25c0,3.012,2.192,5.453,4.896,5.453C63.789,71.098,65.98,68.656,65.98,65.645"/>
	<path class="st1" d="M65.98,65.645c0-2.234-2.694-6.96-4.085-9.248c-0.398-0.654-1.258-0.655-1.657-0.003
		c-1.401,2.286-4.047,7.014-4.047,9.25c0,3.012,2.192,5.453,4.896,5.453C63.789,71.098,65.98,68.656,65.98,65.645z"/>
	<path class="st0" d="M62.366,66.99"/>
	<line class="st1" x1="62.366" y1="66.99" x2="62.366" y2="66.99"/>
</g>
</svg>
