<?xml version="1.0" encoding="utf-8"?>
<!-- Generator: Adobe Illustrator 16.0.0, SVG Export Plug-In . SVG Version: 6.00 Build 0)  -->
<!DOCTYPE svg PUBLIC "-//W3C//DTD SVG 1.1//EN" "http://www.w3.org/Graphics/SVG/1.1/DTD/svg11.dtd">
<svg version="1.1" xmlns="http://www.w3.org/2000/svg" xmlns:xlink="http://www.w3.org/1999/xlink" x="0px" y="0px" width="70.25px"
	 height="81.75px" viewBox="0 0 70.25 81.75" style="enable-background:new 0 0 70.25 81.75;" xml:space="preserve">
<style type="text/css">
<![CDATA[
	.st0{fill:none;stroke:#45B5A9;stroke-width:4.2;stroke-miterlimit:10;}
	.st1{fill:none;stroke:#45B5A9;stroke-width:2.5;stroke-linecap:round;stroke-linejoin:round;stroke-miterlimit:10;}
]]>
</style>
<g id="レイヤー_1">
</g>
<g id="編集モード">
	<polyline class="st1" points="58.316,31.612 36.146,20.551 13.975,31.612 	"/>
	<line class="st1" x1="20.751" y1="55.431" x2="20.751" y2="33.06"/>
	<line class="st1" x1="51.539" y1="33.06" x2="51.539" y2="55.431"/>
	<path class="st1" d="M65.242,57.593v16.29c0,0.892-0.721,1.614-1.613,1.614H8.662c-0.891,0-1.614-0.723-1.614-1.614v-16.29
		c0-0.891,0.723-1.613,1.614-1.613h54.967C64.521,55.979,65.242,56.702,65.242,57.593z"/>
	<line class="st0" x1="57.84" y1="56.871" x2="57.84" y2="74.604"/>
	<line class="st0" x1="49.238" y1="56.871" x2="49.238" y2="74.604"/>
	<line class="st0" x1="40.637" y1="56.871" x2="40.637" y2="74.604"/>
	<line class="st0" x1="32.034" y1="56.871" x2="32.034" y2="74.604"/>
	<line class="st0" x1="23.432" y1="56.871" x2="23.432" y2="74.604"/>
	<line class="st0" x1="14.83" y1="74.604" x2="14.83" y2="56.871"/>
	<line class="st1" x1="25.683" y1="35.861" x2="46.361" y2="51.606"/>
	<line class="st1" x1="43.166" y1="38.193" x2="25.552" y2="51.606"/>
	<line class="st1" x1="46.229" y1="35.861" x2="46.25" y2="35.921"/>
	<line class="st1" x1="35.988" y1="20.031" x2="35.988" y2="11.588"/>
	<line class="st1" x1="29.953" y1="14.886" x2="42.023" y2="14.886"/>
	<circle class="st1" cx="35.988" cy="7.63" r="3.166"/>
</g>
</svg>
