<?xml version="1.0" encoding="utf-8"?>
<!-- Generator: Adobe Illustrator 16.0.0, SVG Export Plug-In . SVG Version: 6.00 Build 0)  -->
<!DOCTYPE svg PUBLIC "-//W3C//DTD SVG 1.1//EN" "http://www.w3.org/Graphics/SVG/1.1/DTD/svg11.dtd">
<svg version="1.1" xmlns="http://www.w3.org/2000/svg" xmlns:xlink="http://www.w3.org/1999/xlink" x="0px" y="0px" width="70.25px"
	 height="67px" viewBox="0 0 70.25 67" style="enable-background:new 0 0 70.25 67;" xml:space="preserve">
<style type="text/css">
<![CDATA[
	.st0{fill:#F3FAF9;}
	.st1{fill:none;stroke:#45B5A9;stroke-width:2.5;stroke-linecap:round;stroke-linejoin:round;}
]]>
</style>
<g id="レイヤー_1">
</g>
<g id="編集モード">
	<polyline class="st1" points="33.543,62.021 10.023,62.021 10.023,56.258 29.551,56.258 	"/>
	<circle class="st1" cx="41.345" cy="58.896" r="4.677"/>
	<circle class="st1" cx="56.262" cy="9.609" r="5.875"/>
	<polyline class="st1" points="33.543,51.822 33.543,14.43 23.344,14.43 23.344,51.822 	"/>
	<rect x="17.137" y="24.776" class="st0" width="22.613" height="7.095"/>
	<rect x="17.137" y="24.776" class="st1" width="22.613" height="7.095"/>
	<path class="st1" d="M62.227,60.248V25.465c0-3.294-2.67-5.965-5.965-5.965s-5.965,2.671-5.965,5.965v34.5
		c0,3.326,4.24,2.777,4.24,0.117V44.063c0-1.989,3.672-2.045,3.672,0v16.128C58.209,62.852,62.227,62.803,62.227,60.248z"/>
	<line class="st1" x1="33.543" y1="56.256" x2="33.543" y2="56.256"/>
	<polyline class="st1" points="12.023,30.533 8.023,33.78 12.023,37.031 8.023,40.283 12.023,43.535 8.023,46.792 12.023,50.049 	
		"/>
</g>
</svg>
