<?xml version="1.0" encoding="utf-8"?>
<!-- Generator: Adobe Illustrator 16.0.0, SVG Export Plug-In . SVG Version: 6.00 Build 0)  -->
<!DOCTYPE svg PUBLIC "-//W3C//DTD SVG 1.1//EN" "http://www.w3.org/Graphics/SVG/1.1/DTD/svg11.dtd">
<svg version="1.1" xmlns="http://www.w3.org/2000/svg" xmlns:xlink="http://www.w3.org/1999/xlink" x="0px" y="0px" width="70.25px"
	 height="73.5px" viewBox="0 0 70.25 73.5" style="enable-background:new 0 0 70.25 73.5;" xml:space="preserve">
<style type="text/css">
<![CDATA[
	.st0{fill:#45B5A9;}
]]>
</style>
<g id="レイヤー_1">
</g>
<g id="編集モード">
	<path class="st0" d="M11.016,7.135c0.001-2.278,0.243-2.517,2.528-2.517C29.27,4.616,44.997,4.616,60.724,4.62
		c0.781,0,1.621-0.144,2.313,0.852v1.415c0,18.161,0.001,36.322-0.001,54.483c0,4.291-2.999,7.374-7.295,7.511
		c-0.251,0.008-0.503,0.005-0.755,0.005c-13.294,0-26.588,0.009-39.881-0.018c-1.034-0.002-2.113-0.115-3.09-0.43
		c-2.514-0.809-4.127-2.597-4.632-5.173c-0.535-2.729,0.176-5.16,2.351-7.039c0.347-0.3,0.726-0.563,1.055-0.814L11.016,7.135z
		 M13.235,54.407c0.383,0.035,0.585,0.07,0.787,0.069c13.504-0.005,27.008-0.012,40.512-0.02c0.294,0,0.598-0.044,0.879,0.018
		c0.43,0.095,0.843,0.263,1.277,0.405v1.412c-0.264,0.154-0.43,0.299-0.623,0.354c-0.318,0.092-0.652,0.131-0.981,0.184
		c-2.509,0.396-4.407,2.503-4.224,5.255c0.148,2.229,1.813,4.036,3.861,4.398c2.385,0.423,4.59-0.598,5.529-2.738
		c0.391-0.894,0.613-1.938,0.615-2.913c0.036-17.449,0.027-34.898,0.021-52.349c0-0.446-0.072-0.894-0.119-1.438
		c-0.549-0.03-0.998-0.075-1.448-0.076c-2.978-0.006-5.955-0.003-8.933-0.003c-11.785,0-23.57-0.002-35.354,0.005
		c-0.565,0-1.13,0.075-1.814,0.123L13.235,54.407z M50.147,56.888c-0.447-0.032-0.813-0.081-1.18-0.081
		c-11.449-0.003-22.898-0.004-34.347,0.005c-0.499,0-1.014,0.028-1.493,0.153c-2.372,0.619-3.935,2.924-3.652,5.33
		c0.289,2.45,2.273,4.219,4.822,4.235c3.523,0.023,7.046,0.009,10.569,0.009c7.926,0.001,15.853,0.003,23.778-0.007
		c0.47,0,0.983,0.138,1.398-0.174c-0.542-1.197-1.053-2.328-1.613-3.567c-0.522-0.029-1.101-0.089-1.678-0.089
		c-8.387-0.006-16.775-0.004-25.162-0.008c-0.503,0-1.008-0.002-1.507-0.057c-0.567-0.063-0.912-0.393-0.941-0.992
		c-0.029-0.586,0.311-1.019,0.957-1.119c0.411-0.063,0.836-0.039,1.255-0.041c8.514-0.001,17.027-0.001,25.541-0.001h1.561
		C49.048,59.226,49.574,58.106,50.147,56.888"/>
	<path class="st0" d="M15.188,60.516c0.607,0.009,1.081,0.532,1.042,1.151c-0.036,0.589-0.467,0.98-1.07,0.975
		c-0.653-0.007-1.081-0.472-1.038-1.127C14.16,60.949,14.631,60.508,15.188,60.516"/>
</g>
</svg>
