<?xml version="1.0" encoding="utf-8"?>
<!-- Generator: Adobe Illustrator 16.0.0, SVG Export Plug-In . SVG Version: 6.00 Build 0)  -->
<!DOCTYPE svg PUBLIC "-//W3C//DTD SVG 1.1//EN" "http://www.w3.org/Graphics/SVG/1.1/DTD/svg11.dtd">
<svg version="1.1" xmlns="http://www.w3.org/2000/svg" xmlns:xlink="http://www.w3.org/1999/xlink" x="0px" y="0px" width="70.25px"
	 height="67px" viewBox="0 0 70.25 67" style="enable-background:new 0 0 70.25 67;" xml:space="preserve">
<style type="text/css">
<![CDATA[
	.st0{fill:none;stroke:#45B5A9;stroke-width:2.5;stroke-linecap:round;stroke-linejoin:round;}
]]>
</style>
<g id="レイヤー_1">
</g>
<g id="編集モード">
	<line class="st0" x1="14.248" y1="42.36" x2="56.823" y2="42.36"/>
	<line class="st0" x1="18.724" y1="42.36" x2="18.724" y2="59.43"/>
	<line class="st0" x1="52.347" y1="42.36" x2="52.347" y2="59.43"/>
	<line class="st0" x1="45.414" y1="23.553" x2="45.414" y2="41.867"/>
	<line class="st0" x1="25.657" y1="41.867" x2="25.657" y2="23.553"/>
	<polyline class="st0" points="36.47,23.553 20.942,23.553 20.942,16.603 50.13,16.603 50.13,23.553 43.786,23.553 	"/>
	<circle class="st0" cx="35.536" cy="31.852" r="2.955"/>
	
		<rect x="59.198" y="7.614" transform="matrix(0.7072 0.707 -0.707 0.7072 27.7085 -39.9554)" class="st0" width="5.789" height="11.722"/>
	
		<rect x="59.199" y="15.949" transform="matrix(0.7073 0.7069 -0.7069 0.7073 33.5943 -37.5115)" class="st0" width="5.788" height="11.722"/>
	
		<rect x="59.198" y="24.285" transform="matrix(0.7071 0.7071 -0.7071 0.7071 39.5026 -35.0768)" class="st0" width="5.789" height="11.721"/>
	
		<rect x="6.51" y="7.615" transform="matrix(0.7071 0.7071 -0.7071 0.7071 12.2826 -2.7026)" class="st0" width="5.788" height="11.721"/>
	
		<rect x="6.51" y="15.949" transform="matrix(0.7072 0.707 -0.707 0.7072 18.1735 -0.2624)" class="st0" width="5.787" height="11.721"/>
	
		<rect x="6.509" y="24.285" transform="matrix(0.707 0.7072 -0.7072 0.707 24.0737 2.1818)" class="st0" width="5.789" height="11.72"/>
	<line class="st0" x1="40.128" y1="23.553" x2="40.128" y2="23.553"/>
</g>
</svg>
