<?xml version="1.0" encoding="utf-8"?>
<!-- Generator: Adobe Illustrator 16.0.0, SVG Export Plug-In . SVG Version: 6.00 Build 0)  -->
<!DOCTYPE svg PUBLIC "-//W3C//DTD SVG 1.1//EN" "http://www.w3.org/Graphics/SVG/1.1/DTD/svg11.dtd">
<svg version="1.1" xmlns="http://www.w3.org/2000/svg" xmlns:xlink="http://www.w3.org/1999/xlink" x="0px" y="0px" width="73.5px"
	 height="72.75px" viewBox="0 0 73.5 72.75" style="enable-background:new 0 0 73.5 72.75;" xml:space="preserve">
<style type="text/css">
<![CDATA[
	.st0{fill:none;stroke:#45B5A9;stroke-width:2.5;stroke-linecap:round;stroke-linejoin:round;stroke-miterlimit:10;}
	.st1{fill:none;stroke:#45B5A9;stroke-width:2.5;stroke-linecap:round;stroke-linejoin:round;}
]]>
</style>
<g id="レイヤー_1">
</g>
<g id="編集モード">
	<path class="st0" d="M58.139,27.869v39.545c0,1.002-0.821,1.824-1.824,1.824H15.538c-1.004,0-1.824-0.822-1.824-1.824V12.045
		c0-1.003,0.82-1.824,1.824-1.824h21.657"/>
	<polyline class="st1" points="40.558,3.783 50.037,13.262 59.787,3.512 	"/>
	<line class="st1" x1="40.558" y1="15.047" x2="59.787" y2="15.047"/>
	<line class="st1" x1="40.558" y1="20.83" x2="59.787" y2="20.83"/>
	<line class="st1" x1="50.037" y1="26.815" x2="50.037" y2="13.262"/>
	<line class="st1" x1="21.13" y1="37.069" x2="44.649" y2="37.069"/>
	<line class="st1" x1="21.13" y1="44.496" x2="50.396" y2="44.496"/>
	<rect x="21.129" y="51.922" class="st1" width="29.267" height="7.428"/>
	<line class="st1" x1="50.037" y1="37.069" x2="50.037" y2="37.069"/>
	<line class="st1" x1="21.13" y1="30.085" x2="40.204" y2="30.085"/>
</g>
</svg>
