<?xml version="1.0" encoding="utf-8"?>
<!-- Generator: Adobe Illustrator 16.0.0, SVG Export Plug-In . SVG Version: 6.00 Build 0)  -->
<!DOCTYPE svg PUBLIC "-//W3C//DTD SVG 1.1//EN" "http://www.w3.org/Graphics/SVG/1.1/DTD/svg11.dtd">
<svg version="1.1" xmlns="http://www.w3.org/2000/svg" xmlns:xlink="http://www.w3.org/1999/xlink" x="0px" y="0px" width="80.5px"
	 height="63.75px" viewBox="0 0 80.5 63.75" style="enable-background:new 0 0 80.5 63.75;" xml:space="preserve">
<style type="text/css">
<![CDATA[
	.st0{fill:none;stroke:#45B5A9;stroke-width:2.656;stroke-linecap:round;stroke-linejoin:round;stroke-miterlimit:10;}
	.st1{fill:none;stroke:#45B5A9;stroke-width:2.5;stroke-linecap:round;stroke-linejoin:round;stroke-miterlimit:10;}
]]>
</style>
<g id="レイヤー_1">
</g>
<g id="編集モード">
	<polyline class="st1" points="67.469,17.807 40.169,4.186 12.87,17.807 	"/>
	<rect x="15.261" y="47.028" class="st0" width="49.817" height="11.46"/>
	<rect x="35.389" y="20.174" class="st1" width="9.164" height="10.812"/>
	<line class="st1" x1="23.128" y1="38.383" x2="48.235" y2="38.383"/>
	<polyline class="st1" points="18.39,45.532 18.39,19.588 23.211,19.588 23.211,45.532 	"/>
	<polyline class="st1" points="57.127,45.532 57.127,19.588 61.949,19.588 61.949,45.532 	"/>
	<line class="st1" x1="52.725" y1="38.383" x2="52.725" y2="38.383"/>
	<line class="st0" x1="3.508" y1="32.76" x2="11.822" y2="32.76"/>
	<polyline class="st0" points="8.725,28.997 12.486,32.759 8.725,36.521 	"/>
	<line class="st0" x1="77" y1="32.76" x2="68.686" y2="32.76"/>
	<polyline class="st0" points="71.783,28.997 68.021,32.759 71.783,36.521 	"/>
</g>
</svg>
