<?xml version="1.0" encoding="utf-8"?>
<!-- Generator: Adobe Illustrator 16.0.0, SVG Export Plug-In . SVG Version: 6.00 Build 0)  -->
<!DOCTYPE svg PUBLIC "-//W3C//DTD SVG 1.1//EN" "http://www.w3.org/Graphics/SVG/1.1/DTD/svg11.dtd">
<svg version="1.1" xmlns="http://www.w3.org/2000/svg" xmlns:xlink="http://www.w3.org/1999/xlink" x="0px" y="0px"
	 width="21.375px" height="21.5px" viewBox="0 0 21.375 21.5" style="enable-background:new 0 0 21.375 21.5;" xml:space="preserve"
	>
<style type="text/css">
<![CDATA[
	.st0{fill:none;stroke:#FF7E00;stroke-miterlimit:10;}
]]>
</style>
<g id="レイヤー_1">
</g>
<g id="編集モード">
	<path class="st0" d="M20.11,8.204L11.47,1.198c-0.427-0.346-1.035-0.346-1.461,0L1.367,8.204c-0.271,0.22-0.429,0.551-0.429,0.901
		v10.474c0,0.64,0.519,1.16,1.16,1.16H5.68c0.64,0,1.16-0.521,1.16-1.16v-3.773c0-0.641,0.519-1.16,1.159-1.16h5.48
		c0.641,0,1.16,0.52,1.16,1.16v3.773c0,0.64,0.52,1.16,1.16,1.16h3.58c0.642,0,1.16-0.521,1.16-1.16V9.104
		C20.539,8.755,20.383,8.424,20.11,8.204z"/>
</g>
</svg>
