<?xml version="1.0" encoding="utf-8"?>
<!-- Generator: Adobe Illustrator 16.0.0, SVG Export Plug-In . SVG Version: 6.00 Build 0)  -->
<!DOCTYPE svg PUBLIC "-//W3C//DTD SVG 1.1//EN" "http://www.w3.org/Graphics/SVG/1.1/DTD/svg11.dtd">
<svg version="1.1" xmlns="http://www.w3.org/2000/svg" xmlns:xlink="http://www.w3.org/1999/xlink" x="0px" y="0px"
	 width="25.188px" height="30.375px" viewBox="0 0 25.188 30.375" style="enable-background:new 0 0 25.188 30.375;"
	 xml:space="preserve">
<style type="text/css">
<![CDATA[
	.st0{fill-rule:evenodd;clip-rule:evenodd;fill:#FF7E00;}
]]>
</style>
<g id="レイヤー_1">
</g>
<g id="編集モード">
	<path class="st0" d="M15.878,3.946h1.073c-0.637,0.902-1.197,1.716-1.783,2.51c-0.126,0.171-0.369,0.076-0.557,0.077
		C11.276,6.539,7.94,6.536,4.605,6.537c-0.908,0-1.067,0.172-1.067,1.139c0,5.036,0,10.071,0,15.108c0,0.83,0.165,1.01,0.937,1.01
		c4.809,0.002,9.618,0.002,14.428,0c0.869,0,1.049-0.189,1.049-1.094c0.002-2.203,0.063-4.406-0.023-6.605
		c-0.045-1.133,0.253-2.033,0.932-2.869c0.506-0.624,0.953-1.298,1.557-1.953v1.874c0,3.468,0,6.937,0,10.403
		c-0.331,1.543-1.209,2.509-2.696,2.834c-4.099-0.006-8.197-0.014-12.295-0.018c-1.102,0-2.204,0.012-3.306,0.018
		c-0.258-0.055-0.522-0.049-0.786-0.105c-0.795-0.167-1.237-0.822-1.805-1.306c0.01-0.041-0.004-0.068-0.039-0.087
		c-0.182-0.43-0.416-0.842-0.415-1.336v-0.612c0.105-0.422-0.107-0.812-0.116-1.224v-2.81v-0.128
		c0.014-0.632,0.049-1.264,0.031-1.895c-0.007-0.223,0.205-0.467-0.031-0.676v-0.49V8.127c0.053-0.395,0.083-0.799,0.11-1.191
		C1.177,5.321,2.64,3.901,4.12,3.946H15.878z"/>
	<path class="st0" d="M24.479,4.329c-1.647,2.289-3.302,4.57-4.937,6.867c-1.275,1.787-2.521,3.594-3.787,5.388
		c-0.535,0.759-1.067,1.523-1.636,2.255c-0.909,1.172-2.05,1.249-3.188,0.313c-1.371-1.127-2.758-2.235-4.164-3.316
		c-1.403-1.078-1.413-2.798,0.033-3.734c0.616-0.398,1.293-0.375,1.877,0.047c0.947,0.681,1.863,1.412,2.763,2.162
		c0.413,0.343,0.659,0.492,1.047-0.086c1.251-1.854,2.563-3.662,3.855-5.483c1.658-2.339,3.314-4.68,4.986-7.009
		c0.614-0.855,1.645-1.092,2.527-0.594c0.708,0.4,1.289,1.292,0.926,2.584c-0.021,0.076-0.042,0.154-0.063,0.231
		C24.57,4.029,24.487,4.153,24.479,4.329"/>
</g>
</svg>
