<?xml version="1.0" encoding="utf-8"?>
<!-- Generator: Adobe Illustrator 16.0.0, SVG Export Plug-In . SVG Version: 6.00 Build 0)  -->
<!DOCTYPE svg PUBLIC "-//W3C//DTD SVG 1.1//EN" "http://www.w3.org/Graphics/SVG/1.1/DTD/svg11.dtd">
<svg version="1.1" xmlns="http://www.w3.org/2000/svg" xmlns:xlink="http://www.w3.org/1999/xlink" x="0px" y="0px" width="24px"
	 height="25px" viewBox="0 0 24 25" style="enable-background:new 0 0 24 25;" xml:space="preserve">
<style type="text/css">
<![CDATA[
	.st0{fill:#45B5A9;}
]]>
</style>
<g id="レイヤー_1">
</g>
<g id="編集モード">
	<path class="st0" d="M19.854,18.565c0.747,0.519,1.235,0.843,1.463,0.976c0.343,0.193,0.804,0.418,1.384,0.672l-1.661,3.35
		c-0.835-0.406-1.661-0.887-2.478-1.445c-0.818-0.557-1.389-0.977-1.714-1.258c-1.319,0.57-2.971,0.857-4.957,0.857
		c-2.936,0-5.252-0.766-6.948-2.295c-2.004-1.811-3.006-4.354-3.006-7.633c0-3.182,0.877-5.654,2.631-7.416
		C6.32,2.61,8.771,1.73,11.917,1.73c3.208,0,5.684,0.861,7.429,2.584c1.745,1.723,2.617,4.188,2.617,7.395
		C21.962,14.566,21.259,16.852,19.854,18.565 M15.278,15.506c0.475-0.852,0.712-2.127,0.712-3.822c0-1.951-0.363-3.344-1.087-4.18
		c-0.726-0.834-1.726-1.252-3-1.252c-1.187,0-2.149,0.426-2.887,1.279c-0.738,0.852-1.108,2.184-1.108,3.994
		c0,2.109,0.361,3.59,1.081,4.443c0.721,0.852,1.71,1.277,2.967,1.277c0.404,0,0.786-0.039,1.147-0.117
		c-0.501-0.483-1.292-0.94-2.373-1.371l0.936-2.149c0.527,0.097,0.938,0.216,1.233,0.356c0.294,0.141,0.867,0.51,1.72,1.107
		C14.821,15.213,15.042,15.357,15.278,15.506"/>
</g>
</svg>
