<?xml version="1.0" encoding="utf-8"?>
<!-- Generator: Adobe Illustrator 16.0.0, SVG Export Plug-In . SVG Version: 6.00 Build 0)  -->
<!DOCTYPE svg PUBLIC "-//W3C//DTD SVG 1.1//EN" "http://www.w3.org/Graphics/SVG/1.1/DTD/svg11.dtd">
<svg version="1.1" xmlns="http://www.w3.org/2000/svg" xmlns:xlink="http://www.w3.org/1999/xlink" x="0px" y="0px"
	 width="20.438px" height="15.688px" viewBox="0 0 20.438 15.688" style="enable-background:new 0 0 20.438 15.688;"
	 xml:space="preserve">
<style type="text/css">
<![CDATA[
	.st0{fill-rule:evenodd;clip-rule:evenodd;fill:#FFFFFF;}
]]>
</style>
<g id="レイヤー_1">
</g>
<g id="編集モード">
	<path class="st0" d="M0.513,15.272l0.005-4.96L0.513,5.125c2.297,1.11,6.691,3.102,8.967,4.253
		c1.033,0.522,1.057,0.517,2.065-0.021c2.11-1.126,6.271-3.148,8.404-4.231l-0.003,1.806l0.003,8.341l-1.765-0.001l-7.903-0.013"/>
	<path class="st0" d="M10.29,0.596c0-0.001,0-0.003,0-0.005c2.556,0,7.104-0.013,9.659,0.007v1.714v1.625
		c-2.662,1.444-6.163,3.2-8.872,4.556c-0.641,0.321-0.749,0.24-1.337-0.04C7.292,7.288,2.95,5.229,0.513,4.042V2.417V0.604"/>
</g>
</svg>
