<?xml version="1.0" encoding="utf-8"?>
<!-- Generator: Adobe Illustrator 16.0.0, SVG Export Plug-In . SVG Version: 6.00 Build 0)  -->
<!DOCTYPE svg PUBLIC "-//W3C//DTD SVG 1.1//EN" "http://www.w3.org/Graphics/SVG/1.1/DTD/svg11.dtd">
<svg version="1.1" xmlns="http://www.w3.org/2000/svg" xmlns:xlink="http://www.w3.org/1999/xlink" x="0px" y="0px" width="32px"
	 height="30.542px" viewBox="0 0 32 30.542" style="enable-background:new 0 0 32 30.542;" xml:space="preserve">
<style type="text/css">
<![CDATA[
	.st0{fill:none;stroke:#333333;stroke-width:0.888;stroke-linecap:round;stroke-linejoin:round;stroke-miterlimit:10;}
	
		.st1{fill-rule:evenodd;clip-rule:evenodd;fill:none;stroke:#333333;stroke-width:0.694;stroke-linecap:round;stroke-linejoin:round;stroke-miterlimit:10;}
	.st2{fill:none;stroke:#333333;stroke-width:0.694;stroke-linecap:round;stroke-linejoin:round;stroke-miterlimit:10;}
	.st3{fill:none;stroke:#333333;stroke-width:1.072;stroke-linecap:round;stroke-linejoin:round;stroke-miterlimit:10;}
	.st4{fill:none;stroke:#333333;stroke-width:0.922;stroke-linecap:round;stroke-linejoin:round;stroke-miterlimit:10;}
	.st5{fill:#333333;}
	.st6{fill-rule:evenodd;clip-rule:evenodd;fill:#FFFFFF;}
	.st7{fill-rule:evenodd;clip-rule:evenodd;fill:#333333;}
]]>
</style>
<g id="レイヤー_1">
</g>
<g id="編集モード">
	<path class="st7" d="M15.288,11.599v17.813c0,0-7.172-4.764-14.274-0.759V11.668C1.014,11.668,7.202,7.457,15.288,11.599"/>
	<path class="st3" d="M15.288,11.599v17.813c0,0-7.172-4.764-14.274-0.759V11.668C1.014,11.668,7.202,7.457,15.288,11.599z"/>
	<path class="st7" d="M15.358,11.599v17.813c0,0,7.172-4.764,14.274-0.759V11.668C29.633,11.668,23.444,7.457,15.358,11.599"/>
	<path class="st3" d="M15.358,11.599v17.813c0,0,7.172-4.764,14.274-0.759V11.668C29.633,11.668,23.444,7.457,15.358,11.599z"/>
	<path class="st6" d="M15.357,27.125c0,0,6.906-4.651,13.744-0.741V9.797c0,0-5.959-4.113-13.744-0.067h-0.068
		C7.503,5.684,1.545,9.797,1.545,9.797v16.587c6.838-3.91,13.744,0.741,13.744,0.741H15.357z"/>
	<path class="st2" d="M15.357,27.125c0,0,6.906-4.651,13.744-0.741V9.797c0,0-5.959-4.113-13.744-0.067h-0.068
		C7.503,5.684,1.545,9.797,1.545,9.797v16.587c6.838-3.91,13.744,0.741,13.744,0.741H15.357z"/>
	<polygon class="st1" points="19.781,19.29 24.863,15.777 31.014,3.61 25.771,0.955 19.604,13.113 	"/>
	<polygon class="st0" points="19.781,19.29 24.863,15.777 31.014,3.61 25.771,0.955 19.604,13.113 	"/>
	<polygon class="st5" points="21.411,18.163 19.725,17.309 19.781,19.29 	"/>
	<polygon class="st5" points="19.614,13.429 21.396,12.919 22.076,14.757 23.96,14.218 24.604,15.957 24.864,15.777 31.014,3.61 
		25.771,0.955 19.605,13.114 	"/>
	<polygon class="st4" points="19.614,13.429 21.396,12.919 22.076,14.757 23.96,14.218 24.604,15.957 24.864,15.777 31.014,3.61 
		25.771,0.955 19.605,13.114 	"/>
</g>
</svg>
