<?xml version="1.0" encoding="utf-8"?>
<!-- Generator: Adobe Illustrator 16.0.0, SVG Export Plug-In . SVG Version: 6.00 Build 0)  -->
<!DOCTYPE svg PUBLIC "-//W3C//DTD SVG 1.1//EN" "http://www.w3.org/Graphics/SVG/1.1/DTD/svg11.dtd">
<svg version="1.1" xmlns="http://www.w3.org/2000/svg" xmlns:xlink="http://www.w3.org/1999/xlink" x="0px" y="0px"
	 width="36.333px" height="36px" viewBox="0 0 36.333 36" style="enable-background:new 0 0 36.333 36;" xml:space="preserve">
<style type="text/css">
<![CDATA[
	.st0{fill-rule:evenodd;clip-rule:evenodd;fill:#FF7E00;}
]]>
</style>
<g id="レイヤー_1">
</g>
<g id="編集モード">
	<g>
		<path class="st0" d="M2.298,9.549c-0.226-2.64,0.964-4.701,2.904-6.454c1.464-1.322,2.896-1.29,4.2,0.107
			c1.476,1.579,2.703,3.368,3.68,5.293c0.871,1.716,0.439,3.359-0.96,4.552c-1.472,1.255-1.148,2.292-0.2,3.669
			c2.114,3.071,4.754,5.563,7.757,7.731c1.231,0.889,2.216,0.992,3.335-0.182c1.859-1.949,3.916-1.854,6.018-0.339
			c1.229,0.887,2.526,1.689,3.688,2.656c1.842,1.533,1.865,3.17,0.202,4.909c-2.622,2.743-6.217,3.375-10.159,1.757
			c-4.816-1.977-8.799-5.149-12.369-8.852c-2.555-2.649-4.777-5.565-6.465-8.866C2.973,13.662,2.164,11.771,2.298,9.549z"/>
		<path class="st0" d="M28.887,15.389c-0.014,0.193,0.006,0.762-0.107,1.304c-0.225,1.079-0.699,2.157-2.005,1.871
			c-1.172-0.256-0.794-1.319-0.669-2.195c0.55-3.867-1.524-6.198-5.524-6.263c-1.007-0.017-2.394,0.3-2.548-1.079
			c-0.174-1.545,1.366-1.566,2.397-1.728C24.742,6.625,28.867,10.434,28.887,15.389z"/>
		<path class="st0" d="M33.203,14.957c0.039,1.024-0.09,2.21-0.512,3.346c-0.348,0.937-0.852,1.912-2.025,1.554
			c-1.154-0.353-0.811-1.409-0.561-2.24c1.037-3.439,0.287-6.448-2.104-9.08c-2.323-2.557-5.264-3.13-8.521-2.582
			c-1.082,0.182-2.289,0.378-2.473-1.015c-0.157-1.194,1.049-1.422,1.984-1.649C26.24,1.539,33.227,7.187,33.203,14.957z"/>
	</g>
</g>
</svg>
